<?xml version="1.0" encoding="utf-8"?>
<!-- Generator: Adobe Illustrator 26.3.0, SVG Export Plug-In . SVG Version: 6.00 Build 0)  -->
<svg version="1.1" id="Layer_1" xmlns="http://www.w3.org/2000/svg" xmlns:xlink="http://www.w3.org/1999/xlink" x="0px" y="0px"
	 viewBox="0 0 1080 1080" style="enable-background:new 0 0 1080 1080;" xml:space="preserve">
<style type="text/css">
	.st0{fill:url(#SVGID_1_);}
	.st1{fill:url(#SVGID_00000060733723286005376940000001560343636719837826_);}
	.st2{fill:url(#SVGID_00000040561269824804039080000008948997626644272560_);}
	.st3{fill:url(#SVGID_00000016760612799441196220000003553031667500671873_);}
	.st4{fill:url(#SVGID_00000024695405972134266430000010096784977901929866_);}
	.st5{fill:url(#SVGID_00000051376253759706543590000002462967458544498612_);}
	.st6{fill:url(#SVGID_00000100344830909836416190000004407597410620287137_);}
	.st7{fill:url(#SVGID_00000141414689330105188710000006902246591307495056_);}
	.st8{fill:url(#SVGID_00000052793060276149309870000016287489889331935362_);}
	.st9{fill:url(#SVGID_00000002369402552535202550000016550438756951817656_);}
	.st10{fill:url(#SVGID_00000181072621201793409920000013808483959210001027_);}
	.st11{fill:url(#SVGID_00000123441332082264097660000017806112603872890530_);}
	.st12{fill:url(#SVGID_00000126318292529589847150000005948682381868738991_);}
	.st13{fill:url(#SVGID_00000036936665077542026670000011585822215416551575_);}
	.st14{fill:url(#SVGID_00000147927206203547200320000008100745622080744849_);}
	.st15{fill:url(#SVGID_00000021078623932433951600000003139739317802371238_);}
	.st16{fill:url(#SVGID_00000147220824412917293570000017577643384000013730_);}
	.st17{fill:url(#SVGID_00000003791515974480084300000010189232813929976483_);}
	.st18{fill:url(#SVGID_00000107580629536491693450000015702516906315322527_);}
	.st19{fill:url(#SVGID_00000085240160865158695660000017255093288620770239_);}
	.st20{fill:url(#SVGID_00000084525299263070684760000015732793514669644987_);}
	.st21{fill:url(#SVGID_00000148661145861433425190000005325179767974634413_);}
	.st22{fill:url(#SVGID_00000056416889079912448230000012914947809002742155_);}
	.st23{fill:url(#SVGID_00000183235493813755590670000013593224223930806450_);}
	.st24{fill:url(#SVGID_00000019645739449921346930000010598237993542014905_);}
	.st25{fill:url(#SVGID_00000091696127321936105900000006080232315326979483_);}
	.st26{fill:url(#SVGID_00000098924052019204482860000007728523561578324883_);}
	.st27{fill:url(#SVGID_00000050646095197614386920000016005425572888055225_);}
	.st28{fill:url(#SVGID_00000097466576108069518110000006384804361867263385_);}
	.st29{fill:url(#SVGID_00000040562427339358733150000002943110319997384864_);}
	.st30{fill:url(#SVGID_00000134967726431061881860000013971493883350064308_);}
	.st31{fill:url(#SVGID_00000052790428961511395740000010337691343649130641_);}
	.st32{fill:url(#SVGID_00000076561248205904236580000008299997294282665131_);}
	.st33{fill:url(#SVGID_00000114065347702143833710000003546728654568225974_);}
	.st34{fill:url(#SVGID_00000170268583516004253880000004087440975663875737_);}
	.st35{fill:url(#SVGID_00000008125504439428060000000010424285178736829626_);}
	.st36{fill:url(#SVGID_00000172431853467437888950000017783169014095992738_);}
</style>
<g>
	<g>
		<linearGradient id="SVGID_1_" gradientUnits="userSpaceOnUse" x1="290.148" y1="422.9908" x2="712.0296" y2="422.9908">
			<stop  offset="0" style="stop-color:#FFED90"/>
			<stop  offset="0.2794" style="stop-color:#E29700"/>
			<stop  offset="0.6869" style="stop-color:#FFED90"/>
			<stop  offset="1" style="stop-color:#E29700"/>
		</linearGradient>
		<path class="st0" d="M290.15,639.22l42.77-71.93c0,0,73.88,9.72,104.98-24.63c0,0.65-84.89,36.94-143.22-8.42
			c0,0,45.36,22.68,63.51-8.42c18.14-31.11,185.34-320.78,185.34-320.78l85.54,149.7c0,0-41.47,6.48-57.68,16.85
			c-16.2,10.37-53.14-4.54-53.14-4.54s-1.3,16.85,16.85,23.98c1.3,1.3-37.59,43.42-40.83,58.32c0,0,117.94-120.53,217.74-74.52
			c1.3,1.3-114.05-24.63-216.44,103.04s-73.23,143.22-145.16,161.36C350.42,639.22,313.48,643.11,290.15,639.22z"/>
		
			<linearGradient id="SVGID_00000108294430000608109400000015814415998561946244_" gradientUnits="userSpaceOnUse" x1="469.3027" y1="519.143" x2="793.9952" y2="519.143">
			<stop  offset="0" style="stop-color:#FFED90"/>
			<stop  offset="0.2794" style="stop-color:#E29700"/>
			<stop  offset="0.6869" style="stop-color:#FFED90"/>
			<stop  offset="1" style="stop-color:#E29700"/>
		</linearGradient>
		<path style="fill:url(#SVGID_00000108294430000608109400000015814415998561946244_);" d="M474.84,624.31
			c0,0-29.81-74.52,48.93-107.57s157.15-29.49,202.51-119.4c0,0-1.3,42.93-23.98,76.63c0,0-3.02,4.1,0.86,9.94
			c3.89,5.83,90.83,157.04,90.83,157.04h-57.68c0,0-42.12-5.62-68.04-51.3c-25.92-45.69-39.21-70.5-39.21-70.5
			s-87.81,13.8-109.68,24.49C497.52,554.33,474.51,580.71,474.84,624.31z"/>
		
			<linearGradient id="SVGID_00000067952145951520752300000001682247128721381041_" gradientUnits="userSpaceOnUse" x1="662.6061" y1="407.87" x2="683.6672" y2="407.87">
			<stop  offset="0" style="stop-color:#FFED90"/>
			<stop  offset="0.2794" style="stop-color:#E29700"/>
			<stop  offset="0.6869" style="stop-color:#FFED90"/>
			<stop  offset="1" style="stop-color:#E29700"/>
		</linearGradient>
		<circle style="fill:url(#SVGID_00000067952145951520752300000001682247128721381041_);" cx="673.14" cy="407.87" r="10.53"/>
	</g>
	<g>
		<g>
			<g>
				
					<linearGradient id="SVGID_00000124153314377192895810000017279179414041000866_" gradientUnits="userSpaceOnUse" x1="-224.7032" y1="621.8677" x2="1017.2543" y2="1029.0446">
					<stop  offset="0" style="stop-color:#FFED90"/>
					<stop  offset="0.2794" style="stop-color:#E29700"/>
					<stop  offset="0.6869" style="stop-color:#FFED90"/>
					<stop  offset="1" style="stop-color:#E29700"/>
				</linearGradient>
				<path style="fill:url(#SVGID_00000124153314377192895810000017279179414041000866_);" d="M107.38,793.23
					c-0.27-10.68-0.41-26.65-0.41-47.92c0-21.27,0.14-37.24,0.41-47.92h9.86l69.28,78.59l0.27-0.41c-1.46-3.1-2.19-5.84-2.19-8.22
					v-69.97h11.64c0.27,10.68,0.41,26.66,0.41,47.92c0,21.27-0.14,37.24-0.41,47.92h-9.86l-69.01-78.46l-0.41,0.27
					c1.37,2.74,2.05,5.16,2.05,7.26v70.92H107.38z"/>
				
					<linearGradient id="SVGID_00000016762639334197353660000004045461452636044980_" gradientUnits="userSpaceOnUse" x1="-224.7031" y1="621.8676" x2="1017.2543" y2="1029.0444">
					<stop  offset="0" style="stop-color:#FFED90"/>
					<stop  offset="0.2794" style="stop-color:#E29700"/>
					<stop  offset="0.6869" style="stop-color:#FFED90"/>
					<stop  offset="1" style="stop-color:#E29700"/>
				</linearGradient>
				<path style="fill:url(#SVGID_00000016762639334197353660000004045461452636044980_);" d="M199.49,796.56h-14.61l-62.52-71.08
					v71.08h-18.22l-0.08-3.25c-0.27-10.65-0.41-26.8-0.41-48.01c0-21.21,0.14-37.36,0.41-48.01l0.08-3.25h14.61l62.53,70.93v-70.93
					h18.22l0.08,3.25c0.27,10.65,0.41,26.8,0.41,48.01c0,21.21-0.14,37.36-0.41,48.01L199.49,796.56z M187.89,789.9h5.09
					c0.22-10.52,0.33-25.5,0.33-44.59c0-19.09-0.11-34.06-0.33-44.59h-5.05v66.63c0,1.87,0.63,4.16,1.87,6.8l0.8,1.7l-3.72,5.59
					l-71.16-80.72h-5.1c-0.22,10.53-0.33,25.5-0.33,44.59c0,19.09,0.11,34.06,0.33,44.59h5.05v-67.59c0-1.57-0.57-3.51-1.7-5.77
					l-1.32-2.63l5.28-3.53L187.89,789.9z"/>
			</g>
			<g>
				
					<linearGradient id="SVGID_00000054955051356214337850000006531054648642680719_" gradientUnits="userSpaceOnUse" x1="-217.8536" y1="600.9753" x2="1024.1039" y2="1008.1522">
					<stop  offset="0" style="stop-color:#FFED90"/>
					<stop  offset="0.2794" style="stop-color:#E29700"/>
					<stop  offset="0.6869" style="stop-color:#FFED90"/>
					<stop  offset="1" style="stop-color:#E29700"/>
				</linearGradient>
				<path style="fill:url(#SVGID_00000054955051356214337850000006531054648642680719_);" d="M242.93,793.23
					c-8.13,0-14.15-1.94-18.07-5.82c-3.93-3.88-5.98-8.83-6.16-14.86c-0.37-8.4-0.37-17.34,0-26.84c0.18-5.48,2.05-10.36,5.61-14.65
					c3.56-4.29,8.67-6.44,15.33-6.44h51.48v22.18c0,11.32-5.43,16.98-16.29,16.98H230.2v5.2c0,9.68,4.52,14.51,13.56,14.51h46.42
					v9.31c-4.02,0.27-9.95,0.41-17.8,0.41H242.93z M280.18,734.08h-36.01c-9.31,0-13.97,4.93-13.97,14.79v9.86h0.27
					c1.83-2.74,4.75-4.11,8.76-4.11h33.68c4.84,0,7.26-2.37,7.26-7.12V734.08z"/>
				
					<linearGradient id="SVGID_00000165913974459596578100000000080267128026455711_" gradientUnits="userSpaceOnUse" x1="-217.7162" y1="600.5563" x2="1024.2412" y2="1007.7331">
					<stop  offset="0" style="stop-color:#FFED90"/>
					<stop  offset="0.2794" style="stop-color:#E29700"/>
					<stop  offset="0.6869" style="stop-color:#FFED90"/>
					<stop  offset="1" style="stop-color:#E29700"/>
				</linearGradient>
				<path style="fill:url(#SVGID_00000165913974459596578100000000080267128026455711_);" d="M272.37,796.56h-29.44
					c-9,0-15.87-2.28-20.42-6.78c-4.53-4.48-6.94-10.24-7.15-17.12c-0.37-8.4-0.37-17.53,0-27.07c0.21-6.19,2.35-11.8,6.38-16.65
					c4.21-5.07,10.23-7.64,17.9-7.64h54.82v25.51c0,13.1-6.97,20.31-19.63,20.31h-41.3V769c0,7.84,3.06,11.18,10.22,11.18h49.75
					v15.76l-3.11,0.21C286.33,796.42,280.26,796.56,272.37,796.56z M239.65,727.97c-5.67,0-9.85,1.71-12.77,5.23
					c-3.1,3.74-4.69,7.87-4.85,12.63c-0.36,9.38-0.36,18.31,0,26.58c0.16,5.23,1.85,9.35,5.17,12.63c3.26,3.22,8.55,4.86,15.73,4.86
					h29.44c5.91,0,10.76-0.08,14.47-0.24v-2.82h-43.08c-10.89,0-16.89-6.34-16.89-17.85v-20.13c0-11.69,6.14-18.12,17.3-18.12h39.34
					v16.75c0,6.55-3.96,10.45-10.59,10.45h-33.68c-3.67,0-5.14,1.4-5.91,2.51h41.51c8.96,0,12.96-4.21,12.96-13.64v-18.85H239.65z
					 M244.16,737.41c-7.45,0-10.63,3.43-10.63,11.45v3.38c1.57-0.59,3.45-0.96,5.7-0.96h33.68c3.01,0,3.92-0.88,3.92-3.79v-10.09
					H244.16z"/>
			</g>
			<g>
				
					<linearGradient id="SVGID_00000024717336912166808810000003820858437019585980_" gradientUnits="userSpaceOnUse" x1="-206.5577" y1="566.5212" x2="1035.3997" y2="973.698">
					<stop  offset="0" style="stop-color:#FFED90"/>
					<stop  offset="0.2794" style="stop-color:#E29700"/>
					<stop  offset="0.6869" style="stop-color:#FFED90"/>
					<stop  offset="1" style="stop-color:#E29700"/>
				</linearGradient>
				<path style="fill:url(#SVGID_00000024717336912166808810000003820858437019585980_);" d="M333.44,793.23
					c-6.94-14.6-17.07-37.42-30.4-68.46h12.73l23.41,57.37l0.41-0.41c-0.27-2.46-0.05-4.65,0.68-6.57l19.03-50.39h12.19l21.5,57.37
					l0.41-0.41c-0.27-2.55-0.05-4.74,0.68-6.57l20.67-50.39h12.87c-13.14,30.76-23.28,53.58-30.4,68.46h-10.27l-22.32-57.51
					l-0.41,0.27c0.27,3.01,0,5.57-0.82,7.67l-19.58,49.57H333.44z"/>
				
					<linearGradient id="SVGID_00000067221382333063300180000017185622533098681473_" gradientUnits="userSpaceOnUse" x1="-206.4149" y1="566.0855" x2="1035.5425" y2="973.2623">
					<stop  offset="0" style="stop-color:#FFED90"/>
					<stop  offset="0.2794" style="stop-color:#E29700"/>
					<stop  offset="0.6869" style="stop-color:#FFED90"/>
					<stop  offset="1" style="stop-color:#E29700"/>
				</linearGradient>
				<path style="fill:url(#SVGID_00000067221382333063300180000017185622533098681473_);" d="M399.34,796.56h-14.65l-19.12-49.27
					l-19.46,49.27h-14.78l-0.9-1.9c-6.92-14.57-17.16-37.64-30.45-68.58l-2-4.65h20.03l20.25,49.62l18.74-49.62h16.8l18.48,49.32
					l20.24-49.32h20.16l-1.98,4.64c-13.11,30.67-23.35,53.75-30.46,68.59L399.34,796.56z M389.26,789.9h5.88
					c6.64-14,15.86-34.76,27.45-61.79H417l-19.83,48.32c-0.51,1.28-0.67,2.95-0.45,4.95l0.17,1.59l-5.2,5.2l-22.5-60.05h-7.57
					l-18.22,48.23c-0.54,1.42-0.7,3.1-0.49,5.03l0.18,1.59l-5.09,5.09l-24.46-59.94h-5.43c11.73,27.24,20.95,48,27.45,61.79h6.03
					l18.75-47.46c0.62-1.59,0.83-3.66,0.6-6.14l-0.18-1.97l5.52-3.68L389.26,789.9z"/>
			</g>
			<g>
				
					<linearGradient id="SVGID_00000130643901862363179130000007890864429719484304_" gradientUnits="userSpaceOnUse" x1="-188.7717" y1="512.2707" x2="1053.1858" y2="919.4475">
					<stop  offset="0" style="stop-color:#FFED90"/>
					<stop  offset="0.2794" style="stop-color:#E29700"/>
					<stop  offset="0.6869" style="stop-color:#FFED90"/>
					<stop  offset="1" style="stop-color:#E29700"/>
				</linearGradient>
				<path style="fill:url(#SVGID_00000130643901862363179130000007890864429719484304_);" d="M504.04,793.64
					c-9.86-0.55-17.46-3.65-22.8-9.31c-5.34-5.66-8.1-12.96-8.28-21.91c-0.37-13.51-0.27-35.19,0.27-65.04
					c10.5-0.27,23.57-0.48,39.23-0.62c15.65-0.14,24.44-0.11,26.36,0.07c9.4,0.37,16.38,2.85,20.95,7.46
					c4.56,4.61,6.94,10.8,7.12,18.55v4.11h-12.05v-1.64c0-5.84-1.48-10.25-4.45-13.21c-2.97-2.96-7.78-4.45-14.44-4.45h-50.93v52.17
					c0,7.21,1.73,12.85,5.2,16.91c3.47,4.06,8.85,6.09,16.16,6.09h29.03c6.75,0,11.8-2.01,15.13-6.02c3.33-4.02,5-9.4,5-16.16
					v-12.19h-0.41c-1.83,2.19-5.16,3.29-10,3.29h-10.27c-9.13,0-16.43-0.09-21.91-0.27v-10.41c5.66-0.09,12.73-0.14,21.22-0.14
					h33.41v20.81c0,9.13-2.56,16.61-7.67,22.45c-5.11,5.84-12.37,8.99-21.77,9.45c-2.83,0.09-8.42,0.14-16.77,0.14
					C513.01,793.78,507.24,793.73,504.04,793.64z"/>
				
					<linearGradient id="SVGID_00000170957786102650787190000000857375882723676321_" gradientUnits="userSpaceOnUse" x1="-188.7722" y1="512.2723" x2="1053.1852" y2="919.4492">
					<stop  offset="0" style="stop-color:#FFED90"/>
					<stop  offset="0.2794" style="stop-color:#E29700"/>
					<stop  offset="0.6869" style="stop-color:#FFED90"/>
					<stop  offset="1" style="stop-color:#E29700"/>
				</linearGradient>
				<path style="fill:url(#SVGID_00000170957786102650787190000000857375882723676321_);" d="M521.36,797.11
					c-8.31,0-14.17-0.05-17.42-0.14l-0.09,0c-10.69-0.59-19.12-4.08-25.04-10.35c-5.9-6.25-8.99-14.37-9.19-24.13
					c-0.36-13.46-0.27-35.4,0.27-65.17l0.06-3.19l3.19-0.08c10.49-0.27,23.71-0.48,39.29-0.62c20.68-0.18,25.17-0.05,26.6,0.07
					c10.19,0.41,17.96,3.25,23.1,8.44c5.16,5.21,7.88,12.22,8.08,20.82l0,7.52h-18.72v-4.98c0-4.9-1.17-8.55-3.47-10.86
					c-2.31-2.3-6.37-3.47-12.09-3.47h-47.6v48.83c0,6.36,1.48,11.33,4.4,14.74c2.83,3.31,7.28,4.92,13.62,4.92h29.03
					c5.76,0,9.87-1.58,12.56-4.82c2.81-3.38,4.23-8.1,4.23-14.03v-6.53c-2,0.64-4.36,0.97-7.07,0.97h-10.27
					c-9.16,0-16.57-0.09-22.02-0.28l-3.22-0.11v-16.91l3.28-0.05c5.73-0.09,12.89-0.14,21.27-0.14h36.74v24.15
					c0,9.92-2.86,18.21-8.49,24.65c-5.71,6.52-13.82,10.08-24.12,10.58C535.35,797.07,529.68,797.11,521.36,797.11z M504.18,790.31
					c3.2,0.09,8.98,0.13,17.18,0.13c8.24,0,13.85-0.05,16.67-0.14c8.48-0.41,14.83-3.13,19.37-8.31c4.6-5.26,6.84-11.89,6.84-20.26
					v-17.48h-30.07c-6.82,0-12.82,0.03-17.89,0.09v3.88c4.96,0.12,11.19,0.18,18.57,0.18h10.27c3.73,0,6.3-0.72,7.43-2.09l1-1.2
					h5.31v15.52c0,7.52-1.94,13.67-5.77,18.29c-3.98,4.8-9.93,7.23-17.69,7.23h-29.03c-8.29,0-14.58-2.44-18.69-7.26
					c-3.98-4.66-6-11.08-6-19.07v-55.5h54.27c7.55,0,13.2,1.83,16.8,5.42c3.3,3.3,5.1,7.96,5.39,13.88h5.42v-0.77
					c-0.16-6.86-2.18-12.19-6.16-16.21c-3.93-3.97-10.23-6.15-18.71-6.48l-0.18-0.01c-1.24-0.12-6.76-0.22-26.01-0.05
					c-14,0.12-26.08,0.3-35.98,0.54c-0.49,28.05-0.57,48.79-0.22,61.69c0.17,8.19,2.58,14.63,7.38,19.71
					C488.37,787.03,495.27,789.81,504.18,790.31z"/>
			</g>
			<g>
				
					<linearGradient id="SVGID_00000129894613256387636520000002114021041102059943_" gradientUnits="userSpaceOnUse" x1="-182.7751" y1="493.9802" x2="1059.1823" y2="901.157">
					<stop  offset="0" style="stop-color:#FFED90"/>
					<stop  offset="0.2794" style="stop-color:#E29700"/>
					<stop  offset="0.6869" style="stop-color:#FFED90"/>
					<stop  offset="1" style="stop-color:#E29700"/>
				</linearGradient>
				<path style="fill:url(#SVGID_00000129894613256387636520000002114021041102059943_);" d="M607.96,793.37
					c-6.3-0.27-11.09-2.44-14.38-6.5c-3.29-4.06-5.02-8.78-5.2-14.17c-0.27-16.79-0.27-32.77,0-47.92
					c22.27-0.46,40.53-0.5,54.77-0.14c6.3,0.27,11.14,2.42,14.51,6.44c3.38,4.02,5.16,8.85,5.34,14.51c0.36,10.32,0.36,19.22,0,26.7
					c-0.18,5.39-1.98,10.18-5.41,14.38c-3.42,4.2-8.24,6.44-14.45,6.71C631.38,793.73,619.65,793.73,607.96,793.37z M612.07,783.78
					h26.97c8.31,0,12.46-4.88,12.46-14.65v-20.13c0-9.77-4.15-14.65-12.46-14.65h-39.3v34.78
					C599.75,778.9,603.86,783.78,612.07,783.78z"/>
				
					<linearGradient id="SVGID_00000077317586127990267450000011205216310664325038_" gradientUnits="userSpaceOnUse" x1="-182.7759" y1="493.9825" x2="1059.1815" y2="901.1594">
					<stop  offset="0" style="stop-color:#FFED90"/>
					<stop  offset="0.2794" style="stop-color:#E29700"/>
					<stop  offset="0.6869" style="stop-color:#FFED90"/>
					<stop  offset="1" style="stop-color:#E29700"/>
				</linearGradient>
				<path style="fill:url(#SVGID_00000077317586127990267450000011205216310664325038_);" d="M625.51,796.97
					c-5.91,0-11.81-0.09-17.65-0.27l-0.04,0c-7.27-0.32-12.93-2.92-16.82-7.74c-3.74-4.62-5.74-10.05-5.94-16.15
					c-0.27-16.81-0.27-32.97,0-48.1l0.06-3.21l3.21-0.07c22.21-0.46,40.69-0.5,54.92-0.14c7.3,0.32,12.99,2.88,16.98,7.62
					c3.85,4.59,5.91,10.15,6.12,16.55c0.37,10.35,0.36,19.43,0,26.97c-0.21,6.06-2.28,11.57-6.15,16.32
					c-4.03,4.95-9.71,7.62-16.88,7.93C637.38,796.88,631.43,796.97,625.51,796.97z M608.09,790.04c11.55,0.36,23.32,0.36,34.96,0
					c5.22-0.23,9.15-2.02,11.97-5.48c2.98-3.65,4.5-7.7,4.66-12.38c0.36-7.4,0.36-16.29,0-26.47c-0.16-4.94-1.65-9.03-4.56-12.49
					c-2.77-3.3-6.74-5.02-12.11-5.25c-13.38-0.34-30.66-0.32-51.34,0.08c-0.22,14.11-0.2,29.1,0.05,44.6
					c0.16,4.63,1.62,8.61,4.46,12.13C598.86,788.08,602.75,789.8,608.09,790.04z M639.04,787.12h-26.97
					c-5.85,0-15.66-2.34-15.66-17.98v-38.11h42.63c5.9,0,15.79,2.34,15.79,17.98v20.13C654.84,784.78,644.94,787.12,639.04,787.12z
					 M603.08,737.69v31.44c0,9.97,4.54,11.32,8.99,11.32h26.97c4.51,0,9.13-1.34,9.13-11.32v-20.13c0-9.97-4.61-11.32-9.13-11.32
					H603.08z"/>
			</g>
			<g>
				
					<linearGradient id="SVGID_00000054267008307671723800000015621578765855865741_" gradientUnits="userSpaceOnUse" x1="-172.0113" y1="461.1486" x2="1069.9462" y2="868.3254">
					<stop  offset="0" style="stop-color:#FFED90"/>
					<stop  offset="0.2794" style="stop-color:#E29700"/>
					<stop  offset="0.6869" style="stop-color:#FFED90"/>
					<stop  offset="1" style="stop-color:#E29700"/>
				</linearGradient>
				<path style="fill:url(#SVGID_00000054267008307671723800000015621578765855865741_);" d="M683.82,793.23
					c-0.27-11.04-0.41-27.61-0.41-49.7c0-22.09,0.14-38.66,0.41-49.7h10.95c0.18,11.05,0.27,27.61,0.27,49.7
					c0,22.09-0.09,38.66-0.27,49.7H683.82z"/>
				
					<linearGradient id="SVGID_00000026871294111186385360000009067570602269666734_" gradientUnits="userSpaceOnUse" x1="-172.0099" y1="461.1444" x2="1069.9475" y2="868.3213">
					<stop  offset="0" style="stop-color:#FFED90"/>
					<stop  offset="0.2794" style="stop-color:#E29700"/>
					<stop  offset="0.6869" style="stop-color:#FFED90"/>
					<stop  offset="1" style="stop-color:#E29700"/>
				</linearGradient>
				<path style="fill:url(#SVGID_00000026871294111186385360000009067570602269666734_);" d="M698.05,796.56h-17.48l-0.08-3.25
					c-0.27-11.04-0.41-27.79-0.41-49.78c0-22,0.14-38.75,0.41-49.79l0.08-3.25h17.48l0.05,3.28c0.18,11.08,0.27,27.82,0.27,49.76
					c0,21.94-0.09,38.68-0.27,49.76L698.05,796.56z M687.08,789.9h4.41c0.15-10.96,0.22-26.53,0.22-46.37
					c0-19.83-0.08-35.41-0.22-46.37h-4.41c-0.22,10.92-0.34,26.49-0.34,46.37C686.74,763.41,686.85,778.98,687.08,789.9z"/>
			</g>
			<g>
				
					<linearGradient id="SVGID_00000090274812111930885150000004126319222517003918_" gradientUnits="userSpaceOnUse" x1="-165.0639" y1="439.9581" x2="1076.8934" y2="847.1349">
					<stop  offset="0" style="stop-color:#FFED90"/>
					<stop  offset="0.2794" style="stop-color:#E29700"/>
					<stop  offset="0.6869" style="stop-color:#FFED90"/>
					<stop  offset="1" style="stop-color:#E29700"/>
				</linearGradient>
				<path style="fill:url(#SVGID_00000090274812111930885150000004126319222517003918_);" d="M736.67,793.23
					c-6.57-0.36-11.59-2.51-15.06-6.44c-3.47-3.92-5.34-8.72-5.61-14.38c-0.55-9.04-0.55-17.94,0-26.7
					c0.27-5.93,2.24-10.91,5.89-14.92c3.65-4.02,8.76-6.02,15.34-6.02h39.84v-30.94h11.23c0.27,11.05,0.41,27.61,0.41,49.7
					c0,22.09-0.14,38.66-0.41,49.7h-10.13l-0.96-9.17h-0.27c-0.73,2.46-2.21,4.59-4.45,6.37c-2.24,1.78-5.09,2.76-8.56,2.94
					C753.97,793.73,744.88,793.69,736.67,793.23z M740.91,783.65h24.78c3.83,0,6.69-1.28,8.56-3.83c1.87-2.55,2.81-5.93,2.81-10.13
					v-35.19h-36.15c-8.95,0-13.42,4.84-13.42,14.51V769C727.5,778.76,731.97,783.65,740.91,783.65z"/>
				
					<linearGradient id="SVGID_00000125569512732960419700000004870797448900672701_" gradientUnits="userSpaceOnUse" x1="-164.9316" y1="439.5545" x2="1077.0258" y2="846.7313">
					<stop  offset="0" style="stop-color:#FFED90"/>
					<stop  offset="0.2794" style="stop-color:#E29700"/>
					<stop  offset="0.6869" style="stop-color:#FFED90"/>
					<stop  offset="1" style="stop-color:#E29700"/>
				</linearGradient>
				<path style="fill:url(#SVGID_00000125569512732960419700000004870797448900672701_);" d="M751.17,796.94
					c-5.18,0-10.09-0.13-14.69-0.38l0,0c-7.47-0.41-13.31-2.96-17.38-7.56c-3.97-4.48-6.13-10.01-6.44-16.42
					c-0.55-9.09-0.55-18.21,0-27.07c0.31-6.65,2.58-12.37,6.75-16.96c4.29-4.72,10.28-7.12,17.8-7.12h36.51v-30.94h17.81l0.08,3.25
					c0.27,11.01,0.41,27.76,0.41,49.79c0,22.02-0.14,38.77-0.41,49.78l-0.08,3.25h-16.39l-0.39-3.71c-0.07,0.06-0.14,0.12-0.21,0.17
					c-2.78,2.21-6.3,3.45-10.46,3.67C759.62,796.86,755.31,796.94,751.17,796.94z M737.22,728.1c-5.64,0-9.85,1.61-12.87,4.93
					c-3.14,3.46-4.78,7.65-5.02,12.84c-0.54,8.64-0.54,17.49,0,26.34c0.24,4.97,1.8,9,4.78,12.37c2.88,3.26,7.05,5,12.75,5.32h0
					c8.07,0.45,17.14,0.49,26.94,0.13c2.73-0.14,4.91-0.87,6.6-2.22c0.91-0.73,1.65-1.51,2.22-2.36c-1.78,0.9-4.04,1.52-6.92,1.52
					h-24.78c-10.8,0-16.75-6.39-16.75-17.98v-19.99c0-11.51,5.95-17.85,16.75-17.85h39.48v38.52c0,4.37-0.92,8.07-2.74,11.04h2.55
					l0.96,9.17h3.87c0.22-10.9,0.34-26.47,0.34-46.37c0-19.9-0.11-35.47-0.34-46.37h-4.64v30.94H737.22z M740.91,737.83
					c-7.07,0-10.09,3.34-10.09,11.18V769c0,7.93,3.02,11.32,10.09,11.32h24.78c3.64,0,5.09-1.41,5.87-2.47
					c1.43-1.96,2.16-4.71,2.16-8.16v-31.86H740.91z"/>
			</g>
			<g>
				
					<linearGradient id="SVGID_00000042729326298414348860000004721782759022318513_" gradientUnits="userSpaceOnUse" x1="-160.5127" y1="426.0762" x2="1081.4447" y2="833.2531">
					<stop  offset="0" style="stop-color:#FFED90"/>
					<stop  offset="0.2794" style="stop-color:#E29700"/>
					<stop  offset="0.6869" style="stop-color:#FFED90"/>
					<stop  offset="1" style="stop-color:#E29700"/>
				</linearGradient>
				<path style="fill:url(#SVGID_00000042729326298414348860000004721782759022318513_);" d="M833.75,793.23
					c-8.13,0-14.15-1.94-18.07-5.82c-3.93-3.88-5.98-8.83-6.16-14.86c-0.37-8.4-0.37-17.34,0-26.84c0.18-5.48,2.05-10.36,5.61-14.65
					c3.56-4.29,8.67-6.44,15.34-6.44h51.48v22.18c0,11.32-5.43,16.98-16.29,16.98h-44.64v5.2c0,9.68,4.52,14.51,13.56,14.51h46.42
					v9.31c-4.02,0.27-9.95,0.41-17.8,0.41H833.75z M870.99,734.08h-36.01c-9.31,0-13.97,4.93-13.97,14.79v9.86h0.27
					c1.82-2.74,4.75-4.11,8.76-4.11h33.68c4.84,0,7.26-2.37,7.26-7.12V734.08z"/>
				
					<linearGradient id="SVGID_00000181803960212950101580000002969222505754125718_" gradientUnits="userSpaceOnUse" x1="-160.3754" y1="425.6572" x2="1081.582" y2="832.834">
					<stop  offset="0" style="stop-color:#FFED90"/>
					<stop  offset="0.2794" style="stop-color:#E29700"/>
					<stop  offset="0.6869" style="stop-color:#FFED90"/>
					<stop  offset="1" style="stop-color:#E29700"/>
				</linearGradient>
				<path style="fill:url(#SVGID_00000181803960212950101580000002969222505754125718_);" d="M863.18,796.56h-29.44
					c-9,0-15.87-2.28-20.42-6.78c-4.54-4.48-6.94-10.24-7.15-17.12c-0.37-8.4-0.37-17.52,0-27.07c0.21-6.19,2.35-11.8,6.38-16.65
					c4.21-5.07,10.23-7.64,17.9-7.64h54.82v25.51c0,13.1-6.97,20.31-19.63,20.31h-41.3V769c0,7.84,3.06,11.18,10.22,11.18h49.75
					v15.76l-3.11,0.21C877.14,796.42,871.07,796.56,863.18,796.56z M830.46,727.97c-5.67,0-9.85,1.71-12.77,5.23
					c-3.1,3.74-4.69,7.87-4.85,12.63c-0.36,9.38-0.36,18.31,0,26.58c0.16,5.23,1.85,9.34,5.17,12.63c3.26,3.22,8.55,4.86,15.73,4.86
					h29.44c5.91,0,10.76-0.08,14.47-0.24v-2.82h-43.08c-10.89,0-16.89-6.34-16.89-17.85v-20.13c0-11.69,6.14-18.12,17.3-18.12h39.34
					v16.75c0,6.55-3.96,10.45-10.59,10.45h-33.68c-3.67,0-5.14,1.4-5.91,2.51h41.51c8.96,0,12.96-4.21,12.96-13.64v-18.85H830.46z
					 M834.98,737.41c-7.45,0-10.63,3.43-10.63,11.45v3.38c1.57-0.59,3.45-0.96,5.7-0.96h33.68c3.01,0,3.92-0.88,3.92-3.79v-10.09
					H834.98z"/>
			</g>
			<g>
				
					<linearGradient id="SVGID_00000028303657129477670040000010792404218786237591_" gradientUnits="userSpaceOnUse" x1="-152.5324" y1="401.7349" x2="1089.425" y2="808.9117">
					<stop  offset="0" style="stop-color:#FFED90"/>
					<stop  offset="0.2794" style="stop-color:#E29700"/>
					<stop  offset="0.6869" style="stop-color:#FFED90"/>
					<stop  offset="1" style="stop-color:#E29700"/>
				</linearGradient>
				<path style="fill:url(#SVGID_00000028303657129477670040000010792404218786237591_);" d="M901.66,793.23
					c-0.18-7.58-0.27-18.99-0.27-34.23c0-15.24,0.09-26.65,0.27-34.23h10.13l1.23,8.49h0.27c2.28-5.39,6.62-8.22,13.01-8.49
					c8.21-0.46,23.69-0.46,46.42,0c0.46,20.17,0.41,42.99-0.14,68.46h-11.23v-59.01h-37.52c-7.21,0-10.82,4.61-10.82,13.83v45.18
					H901.66z"/>
				
					<linearGradient id="SVGID_00000146457556584121278560000006909658065184096925_" gradientUnits="userSpaceOnUse" x1="-152.5416" y1="401.763" x2="1089.4158" y2="808.9398">
					<stop  offset="0" style="stop-color:#FFED90"/>
					<stop  offset="0.2794" style="stop-color:#E29700"/>
					<stop  offset="0.6869" style="stop-color:#FFED90"/>
					<stop  offset="1" style="stop-color:#E29700"/>
				</linearGradient>
				<path style="fill:url(#SVGID_00000146457556584121278560000006909658065184096925_);" d="M975.85,796.56h-17.82v-59.01h-34.18
					c-3.7,0-7.48,1.25-7.48,10.5v48.52H898.4l-0.08-3.25c-0.18-7.57-0.27-18.79-0.27-34.31c0-15.52,0.09-26.74,0.27-34.31l0.08-3.25
					h16.27l0.55,3.76c2.87-2.29,6.55-3.57,10.94-3.76c8.22-0.46,23.92-0.46,46.63,0l3.19,0.06l0.07,3.19
					c0.45,20.16,0.41,43.24-0.14,68.61L975.85,796.56z M964.69,789.9h4.63c0.45-22.67,0.5-43.44,0.14-61.86
					c-20.82-0.39-35.26-0.37-42.97,0.06c-3.97,0.17-6.78,1.43-8.68,3.92c2.1-0.89,4.26-1.13,6.03-1.13h40.85V789.9z M904.92,789.9
					h4.77v-41.85c0-5.22,1.08-8.89,2.72-11.45h-2.27l-1.23-8.49h-3.98c-0.14,7.36-0.2,17.52-0.2,30.9
					C904.72,772.38,904.78,782.54,904.92,789.9z"/>
			</g>
		</g>
		<g>
			<g>
				
					<linearGradient id="SVGID_00000171678265947711607310000013393237959755000465_" gradientUnits="userSpaceOnUse" x1="-207.5874" y1="569.6617" x2="1034.37" y2="976.8386">
					<stop  offset="0" style="stop-color:#FFED90"/>
					<stop  offset="0.2794" style="stop-color:#E29700"/>
					<stop  offset="0.6869" style="stop-color:#FFED90"/>
					<stop  offset="1" style="stop-color:#E29700"/>
				</linearGradient>
				<path style="fill:url(#SVGID_00000171678265947711607310000013393237959755000465_);" d="M586.47,860.43l25.57-49.85h8.05
					l25.57,49.85h-6.98l-5.84-11.61h-33.47l-5.84,11.61H586.47z M630.13,843.2l-13.39-26.49h-1.28l-14.31,28.2l0.21,0.07
					c1.38-1.19,3.32-1.78,5.84-1.78H630.13z"/>
				
					<linearGradient id="SVGID_00000134942299526203591200000016326183093422636722_" gradientUnits="userSpaceOnUse" x1="-207.6869" y1="569.9653" x2="1034.2705" y2="977.1421">
					<stop  offset="0" style="stop-color:#FFED90"/>
					<stop  offset="0.2794" style="stop-color:#E29700"/>
					<stop  offset="0.6869" style="stop-color:#FFED90"/>
					<stop  offset="1" style="stop-color:#E29700"/>
				</linearGradient>
				<path style="fill:url(#SVGID_00000134942299526203591200000016326183093422636722_);" d="M648.93,862.43h-11.49l-5.84-11.61
					H600.6l-5.84,11.61H583.2l27.62-53.85h10.49L648.93,862.43z M639.91,858.43h2.47l-23.52-45.85h-5.6l-23.51,45.85h2.54
					l5.84-11.61h2.44l-2.26-0.76l15.92-31.36h3.74l15.41,30.49H607.2c-2.01,0-3.54,0.44-4.53,1.29l-0.38,0.33h31.79L639.91,858.43z
					 M616.1,819.86l-10.89,21.45c0.63-0.08,1.29-0.12,1.99-0.12h19.68L616.1,819.86z"/>
			</g>
			<g>
				
					<linearGradient id="SVGID_00000072258712373449099090000010830547809666324652_" gradientUnits="userSpaceOnUse" x1="-203.54" y1="557.3165" x2="1038.4175" y2="964.4933">
					<stop  offset="0" style="stop-color:#FFED90"/>
					<stop  offset="0.2794" style="stop-color:#E29700"/>
					<stop  offset="0.6869" style="stop-color:#FFED90"/>
					<stop  offset="1" style="stop-color:#E29700"/>
				</linearGradient>
				<path style="fill:url(#SVGID_00000072258712373449099090000010830547809666324652_);" d="M682.9,872.96v-17.23h-0.21
					c-0.9,2.95-3.13,4.51-6.69,4.7c-4.65,0.24-9.35,0.24-14.1,0c-3.42-0.19-6.03-1.28-7.83-3.28c-1.8-1.99-2.78-4.51-2.92-7.55
					c-0.29-4.75-0.29-9.38,0-13.89c0.14-3.09,1.16-5.67,3.06-7.76c1.9-2.09,4.56-3.13,7.98-3.13h26.56
					c0.09,5.37,0.14,13.39,0.14,24.07c0,10.73-0.05,18.75-0.14,24.07H682.9z M664.1,855.45h12.89c1.99,0,3.48-0.65,4.45-1.96
					c0.97-1.31,1.46-3.07,1.46-5.31v-18.37h-18.8c-4.65,0-6.98,2.54-6.98,7.62v10.4C657.12,852.91,659.45,855.45,664.1,855.45z"/>
				
					<linearGradient id="SVGID_00000039820730991220368130000010063961587886255523_" gradientUnits="userSpaceOnUse" x1="-203.5417" y1="557.3218" x2="1038.4156" y2="964.4987">
					<stop  offset="0" style="stop-color:#FFED90"/>
					<stop  offset="0.2794" style="stop-color:#E29700"/>
					<stop  offset="0.6869" style="stop-color:#FFED90"/>
					<stop  offset="1" style="stop-color:#E29700"/>
				</linearGradient>
				<path style="fill:url(#SVGID_00000039820730991220368130000010063961587886255523_);" d="M690.7,874.96h-9.81v-13.84
					c-1.22,0.7-2.78,1.19-4.8,1.3c-4.7,0.24-9.51,0.24-14.31,0c-3.96-0.22-7.05-1.54-9.22-3.93c-2.12-2.34-3.27-5.3-3.43-8.8
					c-0.29-4.78-0.29-9.54,0-14.11c0.16-3.51,1.36-6.55,3.58-8.98c2.28-2.51,5.47-3.79,9.46-3.79h28.53l0.04,1.96
					c0.09,5.39,0.14,13.5,0.14,24.11c0,10.66-0.05,18.77-0.14,24.11L690.7,874.96z M684.9,870.96h1.87
					c0.07-5.27,0.11-12.67,0.11-22.07c0-9.36-0.04-16.77-0.11-22.07h-24.59c-2.86,0-4.98,0.81-6.5,2.48
					c-1.59,1.75-2.42,3.88-2.54,6.51c-0.28,4.44-0.28,9.03,0,13.68c0.12,2.61,0.91,4.67,2.41,6.33c1.45,1.6,3.57,2.46,6.46,2.62
					c4.65,0.23,9.32,0.23,13.89,0c1.94-0.1,3.09-0.66,3.81-1.39c-0.77,0.25-1.67,0.4-2.72,0.4H664.1c-5.79,0-8.98-3.42-8.98-9.62
					v-10.4c0-6.2,3.19-9.62,8.98-9.62h20.8v20.37c0,2.18-0.42,4.04-1.24,5.55h1.24V870.96z M664.1,831.81
					c-3.54,0-4.98,1.63-4.98,5.62v10.4c0,3.99,1.44,5.62,4.98,5.62h12.89c1.78,0,2.48-0.66,2.85-1.15c0.71-0.95,1.06-2.33,1.06-4.11
					v-16.37H664.1z"/>
			</g>
			<g>
				
					<linearGradient id="SVGID_00000006697135552389624790000009178360273729632410_" gradientUnits="userSpaceOnUse" x1="-198.5394" y1="542.0637" x2="1043.4181" y2="949.2405">
					<stop  offset="0" style="stop-color:#FFED90"/>
					<stop  offset="0.2794" style="stop-color:#E29700"/>
					<stop  offset="0.6869" style="stop-color:#FFED90"/>
					<stop  offset="1" style="stop-color:#E29700"/>
				</linearGradient>
				<path style="fill:url(#SVGID_00000006697135552389624790000009178360273729632410_);" d="M723.71,860.5
					c-1.14,0.09-4.34,0.12-9.61,0.07c-5.27-0.05-10.11-0.17-14.53-0.36c-0.24-10.3-0.21-22.1,0.07-35.39h5.84v30.69h19.23
					c3.75,0,5.63-2.42,5.63-7.26v-23.43h5.91c0.09,3.94,0.14,9.88,0.14,17.8c0,7.93-0.05,13.86-0.14,17.8h-5.06l-0.64-4.42h-0.14
					C729.31,858.82,727.08,860.31,723.71,860.5z"/>
				
					<linearGradient id="SVGID_00000130617404518245873610000016026980693788745402_" gradientUnits="userSpaceOnUse" x1="-198.5273" y1="542.0271" x2="1043.4301" y2="949.2039">
					<stop  offset="0" style="stop-color:#FFED90"/>
					<stop  offset="0.2794" style="stop-color:#E29700"/>
					<stop  offset="0.6869" style="stop-color:#FFED90"/>
					<stop  offset="1" style="stop-color:#E29700"/>
				</linearGradient>
				<path style="fill:url(#SVGID_00000130617404518245873610000016026980693788745402_);" d="M718.63,862.6
					c-1.29,0-2.81-0.01-4.56-0.02c-5.31-0.05-10.22-0.17-14.6-0.36l-1.87-0.08l-0.04-1.87c-0.24-10.27-0.21-22.21,0.07-35.48
					l0.04-1.96h9.8v30.69h17.23c1.27,0,3.63,0,3.63-5.26v-25.43h9.86l0.05,1.95c0.1,3.97,0.14,9.97,0.14,17.85
					c0,7.88-0.05,13.89-0.14,17.85l-0.05,1.95h-8.74l-0.24-1.66c-1.3,0.92-3.03,1.6-5.37,1.73
					C723.02,862.56,721.3,862.6,718.63,862.6z M701.52,858.29c3.84,0.14,8.07,0.24,12.59,0.28c5.19,0.05,8.37,0.02,9.43-0.06l0.05,0
					c1.63-0.09,2.86-0.54,3.75-1.38c-0.93,0.3-1.86,0.39-2.64,0.39h-21.23v-30.69h-1.88C701.37,838.46,701.34,849.03,701.52,858.29z
					 M732.91,858.43h1.37c0.07-3.86,0.1-9.16,0.1-15.8c0-6.65-0.03-11.95-0.1-15.8h-1.95v21.43c0,2.55-0.48,4.41-1.22,5.76h1.16
					L732.91,858.43z"/>
			</g>
			<g>
				
					<linearGradient id="SVGID_00000102532493659879355870000012663203077187398793_" gradientUnits="userSpaceOnUse" x1="-193.9937" y1="528.1987" x2="1047.9637" y2="935.3755">
					<stop  offset="0" style="stop-color:#FFED90"/>
					<stop  offset="0.2794" style="stop-color:#E29700"/>
					<stop  offset="0.6869" style="stop-color:#FFED90"/>
					<stop  offset="1" style="stop-color:#E29700"/>
				</linearGradient>
				<path style="fill:url(#SVGID_00000102532493659879355870000012663203077187398793_);" d="M755.33,860.43
					c-2.8-0.09-4.87-0.94-6.2-2.53c-1.33-1.59-2.11-3.48-2.35-5.66c-0.14-1.28-0.14-3.37,0-6.27c0.24-2.61,1.07-4.57,2.49-5.88
					c1.42-1.31,3.66-1.96,6.69-1.96h15.31c3.51,0,5.79,1.33,6.84,3.99h0.14v-5.84c0-2.23-0.48-3.87-1.42-4.91
					c-0.95-1.04-2.52-1.57-4.7-1.57h-13.25c-4.18,0-7.31-0.12-9.4-0.36v-4.63h24.5c6.46,0,9.83,3.28,10.11,9.83
					c0.19,6.46,0.19,15.05,0,25.78H755.33z M756.96,855.45h21.29v-7.41c0-1.28-0.46-2.46-1.39-3.53c-0.93-1.07-2.24-1.6-3.95-1.6
					h-15.45c-1.71,0-2.94,0.36-3.7,1.07c-0.76,0.71-1.14,1.9-1.14,3.56v2.99c0,1.42,0.37,2.6,1.1,3.53
					C754.46,854.98,755.54,855.45,756.96,855.45z"/>
				
					<linearGradient id="SVGID_00000000200187173449583240000003778823754458950844_" gradientUnits="userSpaceOnUse" x1="-193.996" y1="528.2058" x2="1047.9614" y2="935.3826">
					<stop  offset="0" style="stop-color:#FFED90"/>
					<stop  offset="0.2794" style="stop-color:#E29700"/>
					<stop  offset="0.6869" style="stop-color:#FFED90"/>
					<stop  offset="1" style="stop-color:#E29700"/>
				</linearGradient>
				<path style="fill:url(#SVGID_00000000200187173449583240000003778823754458950844_);" d="M786.06,862.43l-30.8,0
					c-3.38-0.11-5.96-1.21-7.66-3.24c-1.58-1.89-2.52-4.15-2.8-6.73c-0.16-1.39-0.16-3.55-0.01-6.58c0.29-3.19,1.34-5.6,3.14-7.25
					c1.8-1.65,4.51-2.49,8.05-2.49h15.31c2.09,0,3.72,0.42,4.98,1.07v-0.92c0-1.68-0.31-2.92-0.91-3.57
					c-0.69-0.75-2.13-0.91-3.22-0.91h-13.25c-4.31,0-7.45-0.12-9.63-0.37l-1.77-0.2v-8.41h26.5c7.48,0,11.78,4.17,12.11,11.74
					c0.19,6.49,0.19,15.19,0,25.9L786.06,862.43z M755.36,858.43h26.77c0.15-9.75,0.14-17.72-0.03-23.72
					c-0.24-5.45-2.74-7.89-8.11-7.89h-22.5v0.8c1.89,0.12,4.37,0.19,7.4,0.19h13.25c2.76,0,4.84,0.75,6.18,2.22
					c1.29,1.42,1.95,3.53,1.95,6.26v7.84h-1.18c0.78,1.2,1.18,2.51,1.18,3.91v9.41h-23.29c-2.56,0-4.03-1.17-4.81-2.14
					c-1.02-1.28-1.54-2.89-1.54-4.77v-2.99c0-2.23,0.6-3.92,1.77-5.02c1.15-1.08,2.81-1.61,5.07-1.61h15.45
					c0.77,0,1.49,0.09,2.15,0.26c-0.75-0.6-1.91-1.03-3.79-1.03h-15.31c-2.51,0-4.31,0.48-5.34,1.43c-1.04,0.95-1.66,2.49-1.85,4.58
					c-0.13,2.69-0.13,4.7,0,5.86c0.2,1.81,0.82,3.31,1.9,4.6C751.62,857.76,753.15,858.35,755.36,858.43z M757.46,844.91
					c-1.6,0-2.16,0.37-2.33,0.53c-0.15,0.15-0.51,0.63-0.51,2.1v2.99c0,0.97,0.22,1.71,0.67,2.28c0.24,0.29,0.64,0.63,1.68,0.63
					h19.29v-5.41c0-0.8-0.29-1.51-0.9-2.21c-0.34-0.39-0.96-0.91-2.44-0.91H757.46z"/>
			</g>
			<g>
				
					<linearGradient id="SVGID_00000152986313520220963420000003668902351840875938_" gradientUnits="userSpaceOnUse" x1="-189.5028" y1="514.5008" x2="1052.4546" y2="921.6777">
					<stop  offset="0" style="stop-color:#FFED90"/>
					<stop  offset="0.2794" style="stop-color:#E29700"/>
					<stop  offset="0.6869" style="stop-color:#FFED90"/>
					<stop  offset="1" style="stop-color:#E29700"/>
				</linearGradient>
				<path style="fill:url(#SVGID_00000152986313520220963420000003668902351840875938_);" d="M794,860.43v-3.63l26.99-27.99
					l-0.14-0.14c-1.28,0.81-2.35,1.21-3.21,1.21h-13.74c-3.94,0-6.98-0.12-9.12-0.36v-4.7h33.9v3.42l-26.99,28.2l0.14,0.14
					c1.04-0.81,2.14-1.21,3.28-1.21h10.54c5.65,0,10.09,0.05,13.32,0.14v4.91H794z"/>
				
					<linearGradient id="SVGID_00000041295500348468771050000012100947867247446416_" gradientUnits="userSpaceOnUse" x1="-189.5028" y1="514.5007" x2="1052.4546" y2="921.6776">
					<stop  offset="0" style="stop-color:#FFED90"/>
					<stop  offset="0.2794" style="stop-color:#E29700"/>
					<stop  offset="0.6869" style="stop-color:#FFED90"/>
					<stop  offset="1" style="stop-color:#E29700"/>
				</linearGradient>
				<path style="fill:url(#SVGID_00000041295500348468771050000012100947867247446416_);" d="M830.96,862.43H792v-6.44l23.25-24.11
					h-11.35c-4.06,0-7.11-0.12-9.34-0.37l-1.78-0.2v-8.49h37.9v6.22l-23.29,24.33h8.25c5.67,0,10.17,0.05,13.38,0.14l1.94,0.06
					V862.43z M802.71,858.43h24.25v-0.96c-2.96-0.06-6.76-0.09-11.32-0.09h-10.54c-0.69,0-1.36,0.26-2.05,0.79L802.71,858.43z
					 M796,858.43h4.85l-1.96-1.95l27.79-29.04v-0.62h-4.85l1.96,1.97L796,857.61V858.43z M796.78,827.69
					c1.87,0.13,4.26,0.19,7.12,0.19h13.74c0.17,0,0.81-0.07,2.14-0.9l0.24-0.15h-23.24V827.69z"/>
			</g>
			<g>
				
					<linearGradient id="SVGID_00000169539134019890342040000017119240762208159651_" gradientUnits="userSpaceOnUse" x1="-184.9814" y1="500.7097" x2="1056.9761" y2="907.8865">
					<stop  offset="0" style="stop-color:#FFED90"/>
					<stop  offset="0.2794" style="stop-color:#E29700"/>
					<stop  offset="0.6869" style="stop-color:#FFED90"/>
					<stop  offset="1" style="stop-color:#E29700"/>
				</linearGradient>
				<path style="fill:url(#SVGID_00000169539134019890342040000017119240762208159651_);" d="M848.76,860.5
					c-3.28-0.14-5.77-1.27-7.48-3.38c-1.71-2.11-2.61-4.57-2.71-7.37c-0.14-8.74-0.14-17.04,0-24.93
					c11.58-0.24,21.08-0.26,28.49-0.07c3.28,0.14,5.79,1.26,7.55,3.35c1.76,2.09,2.68,4.61,2.78,7.55c0.19,5.37,0.19,9.99,0,13.89
					c-0.09,2.8-1.03,5.29-2.81,7.48c-1.78,2.18-4.28,3.35-7.51,3.49C860.94,860.69,854.84,860.69,848.76,860.5z M850.9,855.52h14.03
					c4.32,0,6.48-2.54,6.48-7.62v-10.47c0-5.08-2.16-7.62-6.48-7.62h-20.44v18.09C844.49,852.98,846.62,855.52,850.9,855.52z"/>
				
					<linearGradient id="SVGID_00000087399744058494137860000007960191313950892423_" gradientUnits="userSpaceOnUse" x1="-184.9819" y1="500.7112" x2="1056.9756" y2="907.8879">
					<stop  offset="0" style="stop-color:#FFED90"/>
					<stop  offset="0.2794" style="stop-color:#E29700"/>
					<stop  offset="0.6869" style="stop-color:#FFED90"/>
					<stop  offset="1" style="stop-color:#E29700"/>
				</linearGradient>
				<path style="fill:url(#SVGID_00000087399744058494137860000007960191313950892423_);" d="M857.88,862.64
					c-3.08,0-6.15-0.05-9.19-0.14l-0.03,0c-3.86-0.17-6.87-1.56-8.95-4.12c-1.98-2.45-3.04-5.33-3.15-8.56
					c-0.14-8.75-0.14-17.16,0-25.03l0.03-1.92l1.92-0.04c11.55-0.24,21.17-0.26,28.58-0.07c3.88,0.17,6.9,1.53,9.03,4.06
					c2.05,2.43,3.14,5.39,3.24,8.77c0.19,5.39,0.19,10.12,0,14.05c-0.11,3.21-1.21,6.12-3.26,8.64c-2.15,2.63-5.17,4.06-8.97,4.22
					C864.07,862.6,860.97,862.64,857.88,862.64z M848.84,858.5c6.01,0.19,12.12,0.19,18.17,0c2.63-0.12,4.61-1.02,6.02-2.75
					c1.51-1.85,2.29-3.91,2.37-6.28c0.19-3.85,0.19-8.46,0-13.75c-0.08-2.51-0.84-4.58-2.31-6.33c-1.39-1.65-3.39-2.52-6.11-2.64
					c-6.9-0.18-15.8-0.16-26.43,0.04c-0.11,7.26-0.1,14.97,0.03,22.93c0.08,2.34,0.82,4.36,2.26,6.14
					C844.18,857.52,846.14,858.38,848.84,858.5z M864.93,857.52H850.9c-3.14,0-8.41-1.25-8.41-9.62v-20.09h22.44
					c3.17,0,8.48,1.25,8.48,9.62v10.47C873.41,856.27,868.09,857.52,864.93,857.52z M846.49,831.81v16.09
					c0,4.94,2.12,5.62,4.41,5.62h14.03c2.33,0,4.48-0.68,4.48-5.62v-10.47c0-4.94-2.15-5.62-4.48-5.62H846.49z"/>
			</g>
			<g>
				
					<linearGradient id="SVGID_00000078760774539563585520000006937649695233149351_" gradientUnits="userSpaceOnUse" x1="-180.2895" y1="486.3985" x2="1061.668" y2="893.5754">
					<stop  offset="0" style="stop-color:#FFED90"/>
					<stop  offset="0.2794" style="stop-color:#E29700"/>
					<stop  offset="0.6869" style="stop-color:#FFED90"/>
					<stop  offset="1" style="stop-color:#E29700"/>
				</linearGradient>
				<path style="fill:url(#SVGID_00000078760774539563585520000006937649695233149351_);" d="M887.79,860.43
					c-0.1-3.94-0.14-9.87-0.14-17.8c0-7.93,0.05-13.86,0.14-17.8h5.27l0.64,4.42h0.14c1.19-2.8,3.44-4.27,6.77-4.42
					c4.27-0.24,12.32-0.24,24.14,0c0.24,10.49,0.21,22.36-0.07,35.61h-5.84v-30.69h-19.51c-3.75,0-5.63,2.4-5.63,7.19v23.5H887.79z"
					/>
				
					<linearGradient id="SVGID_00000013876387912824268370000005612751085145860500_" gradientUnits="userSpaceOnUse" x1="-180.295" y1="486.4155" x2="1061.6624" y2="893.5923">
					<stop  offset="0" style="stop-color:#FFED90"/>
					<stop  offset="0.2794" style="stop-color:#E29700"/>
					<stop  offset="0.6869" style="stop-color:#FFED90"/>
					<stop  offset="1" style="stop-color:#E29700"/>
				</linearGradient>
				<path style="fill:url(#SVGID_00000013876387912824268370000005612751085145860500_);" d="M926.63,862.43h-9.8v-30.69h-17.51
					c-1.27,0-3.63,0-3.63,5.19v25.5h-9.86l-0.05-1.95c-0.1-3.94-0.14-9.78-0.14-17.85c0-8.07,0.05-13.91,0.14-17.85l0.05-1.95h8.95
					l0.25,1.74c1.48-1.05,3.32-1.64,5.48-1.73c4.28-0.24,12.45-0.24,24.27,0l1.92,0.04l0.04,1.92c0.24,10.48,0.21,22.49-0.07,35.7
					L926.63,862.43z M920.84,858.43h1.88c0.23-11.59,0.25-22.21,0.07-31.64c-10.68-0.2-18.1-0.19-22.07,0.03
					c-1.52,0.07-2.69,0.45-3.58,1.17c0.78-0.19,1.53-0.26,2.19-0.26h21.51V858.43z M889.74,858.43h1.95v-21.5
					c0-2.51,0.47-4.35,1.2-5.69h-0.93l-0.64-4.41h-1.58c-0.07,3.81-0.1,9.01-0.1,15.8C889.64,849.42,889.68,854.62,889.74,858.43z"
					/>
			</g>
			<g>
				
					<linearGradient id="SVGID_00000044155683580055883890000010650824522168813247_" gradientUnits="userSpaceOnUse" x1="-175.1716" y1="470.7881" x2="1066.7859" y2="877.965">
					<stop  offset="0" style="stop-color:#FFED90"/>
					<stop  offset="0.2794" style="stop-color:#E29700"/>
					<stop  offset="0.6869" style="stop-color:#FFED90"/>
					<stop  offset="1" style="stop-color:#E29700"/>
				</linearGradient>
				<path style="fill:url(#SVGID_00000044155683580055883890000010650824522168813247_);" d="M947.96,860.43
					c-4.23,0-7.36-1.01-9.4-3.03c-2.04-2.02-3.11-4.59-3.2-7.73c-0.19-4.37-0.19-9.02,0-13.96c0.09-2.85,1.07-5.39,2.92-7.62
					c1.85-2.23,4.51-3.35,7.98-3.35h26.78v11.54c0,5.89-2.83,8.83-8.47,8.83h-23.22v2.71c0,5.03,2.35,7.55,7.05,7.55h24.14v4.84
					c-2.09,0.14-5.18,0.21-9.26,0.21H947.96z M967.33,829.67H948.6c-4.84,0-7.26,2.56-7.26,7.69v5.13h0.14
					c0.95-1.42,2.47-2.14,4.56-2.14h17.52c2.52,0,3.77-1.23,3.77-3.7V829.67z"/>
				
					<linearGradient id="SVGID_00000011750044119828517850000013419993939609516932_" gradientUnits="userSpaceOnUse" x1="-175.0893" y1="470.537" x2="1066.8682" y2="877.7139">
					<stop  offset="0" style="stop-color:#FFED90"/>
					<stop  offset="0.2794" style="stop-color:#E29700"/>
					<stop  offset="0.6869" style="stop-color:#FFED90"/>
					<stop  offset="1" style="stop-color:#E29700"/>
				</linearGradient>
				<path style="fill:url(#SVGID_00000011750044119828517850000013419993939609516932_);" d="M963.27,862.43h-15.31
					c-4.75,0-8.39-1.21-10.81-3.61c-2.41-2.38-3.69-5.44-3.8-9.09c-0.19-4.38-0.19-9.13,0-14.1c0.11-3.28,1.25-6.25,3.38-8.82
					c2.24-2.7,5.44-4.07,9.52-4.07h28.78v13.54c0,6.98-3.72,10.83-10.47,10.83h-21.22v0.71c0,3.94,1.46,5.55,5.05,5.55h26.14v8.71
					l-1.86,0.13C970.55,862.36,967.39,862.43,963.27,862.43z M946.25,826.75c-2.87,0-4.97,0.86-6.44,2.62
					c-1.58,1.9-2.38,4-2.46,6.41c-0.19,4.87-0.19,9.51,0,13.81c0.08,2.65,0.93,4.73,2.61,6.39c1.64,1.63,4.33,2.45,8,2.45h15.31
					c2.94,0,5.37-0.04,7.26-0.11v-0.94h-22.14c-5.84,0-9.05-3.39-9.05-9.55v-10.47c0-6.25,3.29-9.69,9.26-9.69h20.73v8.98
					c0,3.57-2.16,5.7-5.77,5.7h-17.52c-1.33,0-2.06,0.37-2.49,0.77h21.01c4.54,0,6.47-2.04,6.47-6.83v-9.54H946.25z M948.6,831.67
					c-3.74,0-5.26,1.65-5.26,5.69v1.38c0.77-0.24,1.66-0.39,2.7-0.39h17.52c1.51,0,1.77-0.45,1.77-1.7v-4.98H948.6z"/>
			</g>
		</g>
	</g>
</g>
</svg>
