<?xml version="1.0" encoding="utf-8"?>
<!-- Generator: Adobe Illustrator 26.3.0, SVG Export Plug-In . SVG Version: 6.00 Build 0)  -->
<svg version="1.1" id="Layer_1" xmlns="http://www.w3.org/2000/svg" xmlns:xlink="http://www.w3.org/1999/xlink" x="0px" y="0px"
	 viewBox="0 0 1080 1080" style="enable-background:new 0 0 1080 1080;" xml:space="preserve">
<style type="text/css">
	.st0{fill:#1250a1;}
</style>
<g>
	<g>
		<path class="st0" d="M285.84,640.93l43.51-73.17c0,0,75.15,9.89,106.79-25.05c0,0.66-86.36,37.57-145.69-8.57
			c0,0,46.14,23.07,64.6-8.57s188.53-326.31,188.53-326.31l87.02,152.28c0,0-42.19,6.59-58.67,17.14
			c-16.48,10.55-54.06-4.61-54.06-4.61s-1.32,17.14,17.14,24.39c1.32,1.32-38.23,44.17-41.53,59.33c0,0,119.98-122.61,221.49-75.81
			c1.32,1.32-116.02-25.05-220.18,104.81s-74.49,145.69-147.66,164.14C347.15,640.93,309.57,644.88,285.84,640.93z"/>
		<path class="st0" d="M473.71,625.77c0,0-30.32-75.81,49.77-109.43s159.86-29.99,206-121.46c0,0-1.32,43.67-24.39,77.95
			c0,0-3.08,4.17,0.88,10.11s92.4,159.75,92.4,159.75h-58.67c0,0-42.85-5.71-69.22-52.19s-39.88-71.72-39.88-71.72
			s-89.32,14.04-111.57,24.91C496.79,554.57,473.38,581.42,473.71,625.77z"/>
		<circle class="st0" cx="675.43" cy="405.59" r="10.71"/>
	</g>
	<g>
		<g>
			<g>
				<path class="st0" d="M99.92,797.6c-0.28-10.86-0.42-27.11-0.42-48.75c0-21.63,0.14-37.88,0.42-48.75h10.03l70.48,79.95
					l0.28-0.42c-1.49-3.16-2.23-5.94-2.23-8.36V700.1h11.84c0.28,10.86,0.42,27.11,0.42,48.75c0,21.64-0.14,37.88-0.42,48.75h-10.03
					l-70.2-79.81l-0.42,0.28c1.39,2.79,2.09,5.25,2.09,7.38v72.15H99.92z"/>
				<path class="st0" d="M193.62,800.99h-14.87l-63.6-72.31v72.31H96.62l-0.08-3.3c-0.28-10.83-0.42-27.26-0.42-48.83
					c0-21.57,0.14-38,0.42-48.84l0.08-3.3h14.86l63.6,72.15v-72.15h18.53l0.08,3.3c0.28,10.83,0.42,27.26,0.42,48.84
					c0,21.57-0.14,38-0.42,48.83L193.62,800.99z M181.82,794.21H187c0.23-10.71,0.34-25.94,0.34-45.36s-0.11-34.65-0.34-45.36h-5.13
					v67.78c0,1.9,0.64,4.23,1.9,6.91l0.82,1.73l-3.79,5.69l-72.38-82.11h-5.18c-0.23,10.71-0.34,25.94-0.34,45.36
					s0.11,34.65,0.34,45.36h5.13v-68.76c0-1.6-0.58-3.57-1.73-5.86l-1.34-2.68l5.38-3.59L181.82,794.21z"/>
			</g>
			<g>
				<path class="st0" d="M237.81,797.6c-8.27,0-14.39-1.97-18.38-5.92c-3.99-3.95-6.08-8.98-6.27-15.11
					c-0.37-8.54-0.37-17.64,0-27.3c0.19-5.57,2.09-10.54,5.71-14.9c3.62-4.36,8.82-6.55,15.6-6.55h52.37v22.56
					c0,11.51-5.53,17.27-16.57,17.27h-45.41v5.29c0,9.84,4.6,14.76,13.79,14.76h47.22v9.47c-4.09,0.28-10.12,0.42-18.11,0.42H237.81
					z M275.69,737.43h-36.63c-9.47,0-14.21,5.01-14.21,15.04v10.03h0.28c1.86-2.78,4.83-4.18,8.91-4.18h34.26
					c4.92,0,7.38-2.41,7.38-7.24V737.43z"/>
				<path class="st0" d="M267.76,800.99h-29.95c-9.15,0-16.14-2.32-20.77-6.9c-4.61-4.56-7.06-10.42-7.27-17.42
					c-0.37-8.55-0.37-17.83,0-27.53c0.21-6.29,2.39-12,6.49-16.94c4.28-5.16,10.4-7.77,18.21-7.77h55.76v25.95
					c0,13.32-7.09,20.66-19.97,20.66h-42.01v1.9c0,7.97,3.11,11.37,10.4,11.37h50.61v16.03l-3.16,0.22
					C281.95,800.85,275.78,800.99,267.76,800.99z M234.47,731.21c-5.77,0-10.02,1.74-12.99,5.32c-3.16,3.81-4.77,8.01-4.93,12.85
					c-0.37,9.54-0.37,18.63,0,27.04c0.16,5.32,1.88,9.51,5.26,12.85c3.31,3.28,8.7,4.94,16,4.94h29.95c6.01,0,10.94-0.08,14.72-0.24
					v-2.87h-43.83c-11.08,0-17.18-6.45-17.18-18.15v-20.47c0-11.89,6.25-18.43,17.6-18.43h40.02v17.04
					c0,6.66-4.03,10.63-10.77,10.63h-34.26c-3.73,0-5.23,1.42-6.01,2.55h42.22c9.12,0,13.18-4.28,13.18-13.88v-19.17H234.47z
					 M239.06,740.82c-7.58,0-10.82,3.48-10.82,11.65v3.44c1.59-0.6,3.51-0.98,5.8-0.98h34.26c3.06,0,3.99-0.9,3.99-3.85v-10.26
					H239.06z"/>
			</g>
			<g>
				<path class="st0" d="M329.88,797.6c-7.06-14.86-17.36-38.07-30.92-69.64h12.95l23.82,58.36l0.42-0.42
					c-0.28-2.51-0.05-4.73,0.7-6.68l19.36-51.26h12.4l21.87,58.36l0.42-0.42c-0.28-2.6-0.05-4.83,0.7-6.68l21.03-51.26h13.09
					c-13.37,31.29-23.68,54.51-30.92,69.64h-10.45l-22.7-58.5l-0.42,0.28c0.28,3.06,0,5.67-0.84,7.8l-19.92,50.42H329.88z"/>
				<path class="st0" d="M396.92,800.99h-14.9l-19.45-50.12l-19.8,50.12h-15.03l-0.92-1.94c-7.04-14.82-17.46-38.29-30.97-69.76
					l-2.03-4.73h20.38l20.6,50.48l19.07-50.48h17.09l18.8,50.17l20.59-50.17h20.5l-2.02,4.72c-13.33,31.2-23.76,54.68-30.98,69.77
					L396.92,800.99z M386.66,794.21h5.98c6.76-14.25,16.14-35.36,27.92-62.86h-5.68l-20.17,49.15c-0.52,1.3-0.68,3-0.46,5.04
					l0.17,1.61l-5.29,5.29l-22.89-61.09h-7.7l-18.53,49.06c-0.55,1.44-0.72,3.16-0.5,5.11l0.18,1.62l-5.18,5.18l-24.88-60.97h-5.53
					c11.93,27.71,21.31,48.83,27.92,62.86h6.13l19.07-48.27c0.63-1.62,0.84-3.73,0.61-6.25l-0.18-2.01l5.61-3.74L386.66,794.21z"/>
			</g>
			<g>
				<path class="st0" d="M503.42,798.02c-10.03-0.56-17.76-3.71-23.19-9.47c-5.43-5.76-8.24-13.18-8.43-22.28
					c-0.37-13.74-0.28-35.79,0.28-66.16c10.68-0.28,23.98-0.49,39.9-0.63c15.92-0.14,24.86-0.11,26.81,0.07
					c9.56,0.37,16.67,2.9,21.31,7.59c4.64,4.69,7.06,10.98,7.24,18.87v4.18h-12.26v-1.67c0-5.94-1.51-10.42-4.53-13.44
					c-3.02-3.02-7.92-4.53-14.69-4.53h-51.81v53.07c0,7.34,1.76,13.07,5.29,17.2c3.53,4.13,9.01,6.2,16.43,6.2h29.53
					c6.87,0,12-2.04,15.39-6.13c3.39-4.08,5.08-9.56,5.08-16.44v-12.4h-0.42c-1.86,2.23-5.25,3.34-10.17,3.34h-10.45
					c-9.29,0-16.71-0.09-22.29-0.28v-10.59c5.76-0.09,12.95-0.14,21.59-0.14h33.98v21.17c0,9.29-2.6,16.9-7.8,22.84
					c-5.2,5.94-12.58,9.15-22.15,9.61c-2.88,0.09-8.57,0.14-17.06,0.14S506.67,798.11,503.42,798.02z"/>
				<path class="st0" d="M521.04,801.55c-8.45,0-14.41-0.05-17.72-0.14l-0.09,0c-10.88-0.6-19.45-4.15-25.47-10.53
					c-6-6.36-9.15-14.62-9.35-24.54c-0.37-13.7-0.28-36.01,0.28-66.29l0.06-3.24l3.24-0.08c10.67-0.28,24.12-0.49,39.96-0.63
					c21.03-0.18,25.61-0.05,27.06,0.08c10.36,0.42,18.27,3.31,23.5,8.59c5.25,5.3,8.02,12.43,8.22,21.18l0,7.65H551.7v-5.06
					c0-4.98-1.19-8.7-3.53-11.04c-2.35-2.34-6.48-3.53-12.3-3.53h-48.42v49.67c0,6.47,1.51,11.52,4.48,15
					c2.88,3.37,7.41,5.01,13.86,5.01h29.53c5.86,0,10.04-1.6,12.78-4.9c2.86-3.44,4.3-8.24,4.3-14.27v-6.65
					c-2.04,0.65-4.44,0.98-7.19,0.98h-10.45c-9.32,0-16.86-0.09-22.4-0.28l-3.28-0.11v-17.2l3.34-0.05
					c5.83-0.09,13.11-0.14,21.64-0.14h37.38v24.56c0,10.09-2.91,18.53-8.64,25.08c-5.81,6.64-14.06,10.26-24.53,10.76
					C535.27,801.5,529.5,801.55,521.04,801.55z M503.56,794.63c3.25,0.09,9.13,0.14,17.48,0.14c8.38,0,14.09-0.05,16.95-0.14
					c8.63-0.42,15.09-3.18,19.7-8.46c4.68-5.35,6.96-12.09,6.96-20.61v-17.78h-30.59c-6.94,0-13.04,0.03-18.2,0.09v3.95
					c5.04,0.12,11.38,0.18,18.89,0.18h10.45c3.79,0,6.4-0.73,7.56-2.12l1.02-1.22h5.4v15.79c0,7.65-1.97,13.91-5.87,18.6
					c-4.05,4.88-10.1,7.35-18,7.35h-29.53c-8.43,0-14.83-2.48-19.01-7.39c-4.05-4.74-6.11-11.27-6.11-19.4v-56.46h55.2
					c7.68,0,13.43,1.86,17.09,5.52c3.35,3.35,5.19,8.1,5.48,14.12h5.52v-0.79c-0.17-6.98-2.21-12.4-6.26-16.49
					c-4-4.04-10.4-6.25-19.03-6.59l-0.19-0.01c-1.26-0.12-6.88-0.23-26.46-0.05c-14.24,0.12-26.53,0.31-36.6,0.55
					c-0.5,28.53-0.58,49.63-0.22,62.76c0.17,8.33,2.62,14.88,7.5,20.05C487.48,791.29,494.5,794.12,503.56,794.63z"/>
			</g>
			<g>
				<path class="st0" d="M609.14,797.74c-6.41-0.28-11.28-2.48-14.63-6.62c-3.34-4.13-5.11-8.94-5.29-14.42
					c-0.28-17.08-0.28-33.33,0-48.75c22.65-0.46,41.23-0.51,55.71-0.14c6.41,0.28,11.33,2.46,14.76,6.55
					c3.43,4.09,5.24,9.01,5.43,14.76c0.37,10.49,0.37,19.55,0,27.16c-0.19,5.48-2.02,10.35-5.5,14.62
					c-3.48,4.27-8.38,6.55-14.69,6.83C632.95,798.11,621.02,798.11,609.14,797.74z M613.32,787.99h27.44
					c8.45,0,12.68-4.97,12.68-14.9v-20.47c0-9.93-4.23-14.9-12.68-14.9h-39.97v35.38C600.78,783.02,604.96,787.99,613.32,787.99z"/>
				<path class="st0" d="M626.98,801.4c-6.01,0-12.01-0.09-17.95-0.28l-0.04,0c-7.39-0.32-13.15-2.97-17.11-7.87
					c-3.8-4.7-5.83-10.23-6.04-16.43c-0.28-17.1-0.28-33.54,0-48.92l0.06-3.26l3.26-0.07c22.6-0.46,41.39-0.51,55.87-0.14
					c7.42,0.32,13.22,2.93,17.27,7.75c3.92,4.67,6.01,10.33,6.23,16.84c0.37,10.53,0.37,19.76,0,27.43
					c-0.21,6.17-2.32,11.77-6.26,16.6c-4.1,5.03-9.88,7.75-17.17,8.07C639.06,801.31,633.01,801.4,626.98,801.4z M609.26,794.35
					c11.75,0.36,23.72,0.36,35.56,0c5.31-0.23,9.3-2.06,12.17-5.58c3.03-3.71,4.58-7.83,4.74-12.6c0.37-7.53,0.37-16.58,0-26.92
					c-0.16-5.03-1.68-9.18-4.64-12.7c-2.82-3.36-6.85-5.1-12.32-5.34c-13.61-0.35-31.19-0.32-52.23,0.08
					c-0.22,14.36-0.2,29.6,0.05,45.37c0.16,4.71,1.64,8.76,4.54,12.34C599.87,792.35,603.83,794.11,609.26,794.35z M640.75,791.38
					h-27.44c-5.95,0-15.93-2.38-15.93-18.29v-38.77h43.36c6,0,16.07,2.38,16.07,18.3v20.47C656.82,789,646.75,791.38,640.75,791.38z
					 M604.17,741.1v31.99c0,10.14,4.62,11.51,9.14,11.51h27.44c4.59,0,9.28-1.37,9.28-11.51v-20.47c0-10.15-4.69-11.51-9.28-11.51
					H604.17z"/>
			</g>
			<g>
				<path class="st0" d="M686.3,797.6c-0.28-11.23-0.42-28.09-0.42-50.56c0-22.47,0.14-39.32,0.42-50.56h11.14
					c0.18,11.24,0.28,28.09,0.28,50.56c0,22.47-0.09,39.33-0.28,50.56H686.3z"/>
				<path class="st0" d="M700.78,800.99h-17.79l-0.08-3.31c-0.28-11.23-0.42-28.27-0.42-50.64c0-22.38,0.14-39.41,0.42-50.64
					l0.08-3.31h17.79l0.05,3.34c0.19,11.27,0.28,28.3,0.28,50.62c0,22.32-0.09,39.35-0.28,50.61L700.78,800.99z M689.61,794.21h4.49
					c0.15-11.15,0.23-26.99,0.23-47.17c0-20.18-0.08-36.02-0.23-47.17h-4.49c-0.23,11.11-0.34,26.95-0.34,47.17
					C689.27,767.26,689.39,783.1,689.61,794.21z"/>
			</g>
			<g>
				<path class="st0" d="M740.06,797.6c-6.69-0.37-11.79-2.55-15.32-6.55c-3.53-3.99-5.43-8.87-5.71-14.62
					c-0.56-9.19-0.56-18.25,0-27.16c0.28-6.03,2.27-11.09,5.99-15.18c3.71-4.09,8.91-6.13,15.6-6.13h40.53v-31.48h11.42
					c0.28,11.24,0.42,28.09,0.42,50.56c0,22.47-0.14,39.33-0.42,50.56h-10.31l-0.98-9.33h-0.28c-0.74,2.51-2.25,4.67-4.53,6.48
					c-2.28,1.81-5.18,2.81-8.7,2.99C757.66,798.11,748.42,798.06,740.06,797.6z M744.38,787.85h25.21c3.9,0,6.8-1.3,8.7-3.9
					c1.9-2.6,2.86-6.04,2.86-10.31v-35.8h-36.77c-9.1,0-13.65,4.92-13.65,14.76v20.33C730.73,782.88,735.28,787.85,744.38,787.85z"
					/>
				<path class="st0" d="M754.81,801.37c-5.27,0-10.26-0.13-14.94-0.39l0,0c-7.59-0.42-13.54-3.01-17.68-7.69
					c-4.03-4.56-6.24-10.18-6.56-16.71c-0.56-9.25-0.56-18.52,0-27.53c0.31-6.76,2.62-12.58,6.86-17.25
					c4.37-4.8,10.46-7.24,18.11-7.24h37.14v-31.48h18.12l0.08,3.31c0.28,11.2,0.42,28.24,0.42,50.64c0,22.4-0.14,39.44-0.42,50.64
					l-0.08,3.31h-16.67l-0.39-3.77c-0.07,0.06-0.15,0.12-0.22,0.18c-2.83,2.25-6.41,3.51-10.64,3.73
					C763.41,801.29,759.02,801.37,754.81,801.37z M740.62,731.35c-5.74,0-10.02,1.64-13.09,5.02c-3.2,3.52-4.87,7.79-5.11,13.06
					c-0.55,8.79-0.55,17.79,0,26.8c0.24,5.06,1.83,9.16,4.86,12.58c2.93,3.32,7.17,5.09,12.97,5.41h0
					c8.21,0.46,17.43,0.5,27.41,0.14c2.78-0.15,4.99-0.89,6.72-2.26c0.93-0.74,1.68-1.54,2.26-2.4c-1.81,0.92-4.11,1.55-7.04,1.55
					h-25.21c-10.99,0-17.04-6.5-17.04-18.29v-20.34c0-11.71,6.05-18.16,17.04-18.16h40.16v39.19c0,4.44-0.94,8.21-2.79,11.23h2.59
					l0.98,9.33h3.94c0.23-11.09,0.34-26.93,0.34-47.17c0-20.24-0.12-36.08-0.34-47.17h-4.72v31.48H740.62z M744.38,741.24
					c-7.19,0-10.26,3.4-10.26,11.37v20.34c0,8.07,3.07,11.51,10.26,11.51h25.21c3.7,0,5.18-1.43,5.97-2.51
					c1.46-1.99,2.2-4.79,2.2-8.3v-32.4H744.38z"/>
			</g>
			<g>
				<path class="st0" d="M838.81,797.6c-8.27,0-14.39-1.97-18.39-5.92c-3.99-3.95-6.08-8.98-6.27-15.11
					c-0.37-8.54-0.37-17.64,0-27.3c0.18-5.57,2.09-10.54,5.71-14.9c3.62-4.36,8.82-6.55,15.6-6.55h52.37v22.56
					c0,11.51-5.53,17.27-16.58,17.27h-45.41v5.29c0,9.84,4.6,14.76,13.79,14.76h47.22v9.47c-4.09,0.28-10.12,0.42-18.11,0.42H838.81
					z M876.69,737.43h-36.63c-9.47,0-14.21,5.01-14.21,15.04v10.03h0.28c1.86-2.78,4.83-4.18,8.91-4.18h34.26
					c4.92,0,7.38-2.41,7.38-7.24V737.43z"/>
				<path class="st0" d="M868.76,800.99h-29.94c-9.15,0-16.14-2.32-20.77-6.9c-4.61-4.56-7.06-10.42-7.27-17.42
					c-0.37-8.55-0.37-17.83,0-27.53c0.21-6.29,2.39-12,6.49-16.94c4.28-5.16,10.41-7.77,18.21-7.77h55.76v25.95
					c0,13.32-7.09,20.66-19.97,20.66h-42.02v1.9c0,7.97,3.11,11.37,10.4,11.37h50.61v16.03l-3.16,0.22
					C882.95,800.85,876.78,800.99,868.76,800.99z M835.47,731.21c-5.77,0-10.02,1.74-12.99,5.32c-3.16,3.81-4.77,8.01-4.93,12.85
					c-0.37,9.54-0.37,18.63,0,27.04c0.16,5.32,1.88,9.51,5.26,12.85c3.31,3.28,8.7,4.94,16,4.94h29.94c6.02,0,10.95-0.08,14.72-0.24
					v-2.87h-43.83c-11.08,0-17.18-6.45-17.18-18.15v-20.47c0-11.89,6.25-18.43,17.6-18.43h40.02v17.04
					c0,6.66-4.03,10.63-10.77,10.63h-34.26c-3.74,0-5.23,1.42-6.01,2.55h42.23c9.12,0,13.18-4.28,13.18-13.88v-19.17H835.47z
					 M840.06,740.82c-7.58,0-10.82,3.48-10.82,11.65v3.44c1.59-0.6,3.51-0.98,5.8-0.98h34.26c3.06,0,3.99-0.9,3.99-3.85v-10.26
					H840.06z"/>
			</g>
			<g>
				<path class="st0" d="M907.89,797.6c-0.19-7.71-0.28-19.31-0.28-34.82c0-15.51,0.09-27.11,0.28-34.82h10.31l1.25,8.64h0.28
					c2.32-5.48,6.73-8.36,13.23-8.64c8.36-0.46,24.1-0.46,47.22,0c0.46,20.52,0.42,43.73-0.14,69.64h-11.42v-60.03h-38.16
					c-7.34,0-11,4.69-11,14.07v45.96H907.89z"/>
				<path class="st0" d="M983.36,800.99h-18.13v-60.03h-34.77c-3.76,0-7.61,1.27-7.61,10.68v49.35h-18.26l-0.08-3.31
					c-0.19-7.7-0.28-19.11-0.28-34.9c0-15.79,0.09-27.2,0.28-34.9l0.08-3.31h16.55l0.56,3.83c2.92-2.33,6.67-3.63,11.13-3.82
					c8.36-0.46,24.33-0.47,47.43,0l3.25,0.06l0.07,3.25c0.46,20.5,0.42,43.98-0.14,69.79L983.36,800.99z M972.01,794.21h4.71
					c0.46-23.06,0.51-44.19,0.14-62.92c-21.17-0.4-35.87-0.38-43.71,0.06c-4.04,0.17-6.9,1.46-8.83,3.99
					c2.14-0.9,4.34-1.15,6.13-1.15h41.55V794.21z M911.21,794.21h4.85v-42.57c0-5.31,1.1-9.04,2.77-11.65h-2.31l-1.25-8.64h-4.05
					c-0.14,7.49-0.21,17.83-0.21,31.43C911.01,776.38,911.07,786.72,911.21,794.21z"/>
			</g>
		</g>
		<g>
			<g>
				<path class="st0" d="M587.27,865.96l26.01-50.71h8.19l26.01,50.71h-7.1l-5.94-11.81h-34.05l-5.94,11.81H587.27z M631.68,848.42
					l-13.62-26.95h-1.3l-14.56,28.69l0.22,0.07c1.4-1.21,3.38-1.81,5.94-1.81H631.68z"/>
				<path class="st0" d="M650.81,867.99h-11.68l-5.94-11.81h-31.54l-5.94,11.81h-11.76l28.09-54.78h10.67L650.81,867.99z
					 M641.63,863.92h2.52l-23.92-46.64h-5.7l-23.92,46.64h2.59l5.94-11.81h2.48l-2.3-0.77l16.19-31.9h3.8l15.68,31.02h-26.64
					c-2.05,0-3.6,0.44-4.61,1.32l-0.39,0.34h32.34L641.63,863.92z M617.41,824.69l-11.08,21.82c0.64-0.08,1.32-0.13,2.02-0.13h20.02
					L617.41,824.69z"/>
			</g>
			<g>
				<path class="st0" d="M685.36,878.71v-17.53h-0.22c-0.92,3-3.19,4.59-6.81,4.78c-4.73,0.24-9.51,0.24-14.34,0
					c-3.48-0.19-6.13-1.3-7.97-3.33c-1.84-2.03-2.83-4.59-2.97-7.68c-0.29-4.83-0.29-9.54,0-14.13c0.14-3.14,1.18-5.77,3.11-7.9
					c1.93-2.12,4.64-3.19,8.11-3.19h27.02c0.1,5.46,0.15,13.62,0.15,24.49c0,10.92-0.05,19.08-0.15,24.49H685.36z M666.24,860.89
					h13.11c2.03,0,3.54-0.66,4.53-1.99c0.99-1.33,1.48-3.13,1.48-5.4V834.8h-19.12c-4.73,0-7.1,2.58-7.1,7.75v10.58
					C659.14,858.3,661.51,860.89,666.24,860.89z"/>
				<path class="st0" d="M693.3,880.74h-9.97v-14.07c-1.24,0.72-2.83,1.21-4.88,1.32c-4.78,0.24-9.68,0.24-14.55,0
					c-4.02-0.22-7.18-1.57-9.38-4c-2.15-2.38-3.33-5.39-3.49-8.95c-0.29-4.86-0.29-9.7,0-14.35c0.16-3.57,1.39-6.66,3.64-9.14
					c2.32-2.56,5.56-3.85,9.62-3.85h29.02l0.04,2c0.1,5.48,0.15,13.73,0.15,24.52c0,10.84-0.05,19.09-0.15,24.52L693.3,880.74z
					 M687.4,876.67h1.9c0.08-5.36,0.11-12.89,0.11-22.45c0-9.52-0.04-17.06-0.11-22.45h-25.02c-2.9,0-5.07,0.82-6.61,2.52
					c-1.62,1.78-2.47,3.95-2.59,6.62c-0.29,4.52-0.29,9.19,0,13.91c0.12,2.66,0.92,4.75,2.45,6.44c1.48,1.63,3.63,2.5,6.57,2.67
					c4.73,0.24,9.49,0.24,14.13,0c1.97-0.1,3.15-0.67,3.88-1.41c-0.78,0.25-1.69,0.41-2.76,0.41h-13.11c-5.89,0-9.13-3.48-9.13-9.79
					v-10.58c0-6.31,3.24-9.79,9.13-9.79h21.16v20.73c0,2.22-0.43,4.11-1.27,5.64h1.27V876.67z M666.24,836.84
					c-3.6,0-5.06,1.66-5.06,5.72v10.58c0,4.06,1.47,5.72,5.06,5.72h13.11c1.81,0,2.52-0.67,2.9-1.17c0.72-0.96,1.08-2.37,1.08-4.18
					v-16.66H666.24z"/>
			</g>
			<g>
				<path class="st0" d="M726.87,866.03c-1.16,0.1-4.42,0.12-9.78,0.07c-5.36-0.05-10.29-0.17-14.78-0.36
					c-0.24-10.48-0.22-22.48,0.07-36h5.94v31.22h19.56c3.81,0,5.72-2.46,5.72-7.39v-23.83h6.01c0.1,4.01,0.15,10.05,0.15,18.11
					c0,8.07-0.05,14.1-0.15,18.11h-5.14l-0.65-4.49h-0.15C732.57,864.31,730.3,865.84,726.87,866.03z"/>
				<path class="st0" d="M721.71,868.16c-1.32,0-2.86-0.01-4.64-0.02c-5.4-0.05-10.4-0.17-14.85-0.36l-1.9-0.08l-0.04-1.9
					c-0.24-10.45-0.22-22.59,0.07-36.1l0.04-1.99h9.97v31.22h17.53c1.29,0,3.69,0,3.69-5.36V827.7h10.03l0.05,1.99
					c0.1,4.03,0.15,10.14,0.15,18.16c0,8.02-0.05,14.13-0.15,18.16l-0.05,1.99h-8.89l-0.25-1.69c-1.32,0.94-3.09,1.62-5.46,1.76
					C726.18,868.13,724.43,868.16,721.71,868.16z M704.31,863.78c3.91,0.15,8.2,0.24,12.8,0.28c5.28,0.05,8.51,0.03,9.59-0.07
					l0.05,0c1.66-0.09,2.91-0.55,3.81-1.4c-0.95,0.3-1.89,0.39-2.68,0.39h-21.6v-31.22h-1.91
					C704.15,843.61,704.12,854.36,704.31,863.78z M736.24,863.92h1.39c0.07-3.92,0.1-9.32,0.1-16.08c0-6.76-0.04-12.15-0.1-16.08
					h-1.98v21.8c0,2.59-0.48,4.48-1.24,5.86h1.18L736.24,863.92z"/>
			</g>
			<g>
				<path class="st0" d="M759.04,865.96c-2.85-0.1-4.95-0.95-6.3-2.57c-1.35-1.62-2.15-3.54-2.39-5.76c-0.15-1.3-0.15-3.43,0-6.38
					c0.24-2.66,1.09-4.65,2.53-5.98c1.45-1.33,3.72-1.99,6.81-1.99h15.58c3.57,0,5.89,1.35,6.95,4.06h0.15v-5.94
					c0-2.27-0.48-3.94-1.45-5c-0.97-1.06-2.56-1.59-4.78-1.59h-13.47c-4.25,0-7.44-0.12-9.56-0.36v-4.71h24.92
					c6.57,0,10,3.33,10.29,10c0.19,6.57,0.19,15.31,0,26.22H759.04z M760.7,860.89h21.66v-7.53c0-1.3-0.47-2.5-1.41-3.59
					c-0.94-1.09-2.28-1.63-4.02-1.63h-15.72c-1.74,0-2.99,0.36-3.77,1.09c-0.77,0.72-1.16,1.93-1.16,3.62v3.04
					c0,1.45,0.37,2.64,1.12,3.59C758.16,860.41,759.26,860.89,760.7,860.89z"/>
				<path class="st0" d="M790.3,867.99l-31.33,0c-3.44-0.12-6.06-1.23-7.8-3.3c-1.61-1.92-2.57-4.22-2.85-6.84
					c-0.16-1.42-0.16-3.61-0.01-6.69c0.29-3.25,1.36-5.7,3.19-7.38c1.83-1.68,4.58-2.53,8.19-2.53h15.57c2.13,0,3.78,0.42,5.07,1.08
					v-0.93c0-1.71-0.32-2.97-0.92-3.63c-0.7-0.77-2.17-0.93-3.28-0.93h-13.47c-4.38,0-7.58-0.12-9.79-0.37l-1.8-0.21v-8.56h26.95
					c7.61,0,11.99,4.24,12.32,11.94c0.19,6.6,0.19,15.45,0,26.35L790.3,867.99z M759.07,863.92h27.23
					c0.16-9.92,0.15-18.03-0.03-24.13c-0.24-5.54-2.79-8.02-8.25-8.02h-22.89v0.81c1.92,0.13,4.44,0.19,7.53,0.19h13.47
					c2.81,0,4.92,0.76,6.29,2.26c1.31,1.44,1.98,3.59,1.98,6.37v7.98h-1.2c0.8,1.22,1.2,2.55,1.2,3.98v9.57h-23.7
					c-2.61,0-4.1-1.19-4.89-2.18c-1.04-1.3-1.56-2.94-1.56-4.85v-3.04c0-2.27,0.61-3.99,1.8-5.11c1.17-1.1,2.86-1.64,5.16-1.64
					h15.72c0.78,0,1.51,0.09,2.19,0.26c-0.76-0.61-1.94-1.05-3.86-1.05h-15.57c-2.55,0-4.38,0.49-5.44,1.46
					c-1.06,0.97-1.69,2.54-1.88,4.66c-0.13,2.74-0.14,4.78,0,5.97c0.2,1.84,0.83,3.37,1.93,4.68
					C755.26,863.24,756.83,863.84,759.07,863.92z M761.21,850.17c-1.63,0-2.2,0.37-2.37,0.54c-0.16,0.15-0.52,0.65-0.52,2.14v3.04
					c0,0.99,0.22,1.74,0.68,2.32c0.24,0.3,0.65,0.64,1.7,0.64h19.63v-5.5c0-0.82-0.29-1.53-0.92-2.25c-0.35-0.4-0.98-0.93-2.48-0.93
					H761.21z"/>
			</g>
			<g>
				<path class="st0" d="M798.37,865.96v-3.7l27.46-28.47l-0.14-0.15c-1.3,0.82-2.39,1.23-3.26,1.23h-13.98
					c-4.01,0-7.1-0.12-9.27-0.36v-4.78h34.48v3.48L806.2,861.9l0.15,0.15c1.06-0.82,2.17-1.23,3.33-1.23h10.72
					c5.75,0,10.26,0.05,13.55,0.15v5H798.37z"/>
				<path class="st0" d="M835.98,867.99h-39.64v-6.55l23.65-24.53h-11.55c-4.13,0-7.24-0.12-9.5-0.37l-1.81-0.2v-8.64h38.55v6.33
					L812,858.78h8.4c5.76,0,10.34,0.05,13.61,0.15l1.97,0.06V867.99z M807.24,863.92h24.67v-0.98c-3.01-0.06-6.87-0.09-11.51-0.09
					h-10.72c-0.7,0-1.39,0.26-2.09,0.81L807.24,863.92z M800.41,863.92h4.94l-2-1.99l28.27-29.54v-0.63h-4.93l1.99,2l-28.27,29.31
					V863.92z M801.21,832.65c1.91,0.13,4.33,0.19,7.24,0.19h13.98c0.17,0,0.82-0.07,2.18-0.92l0.25-0.16h-23.64V832.65z"/>
			</g>
			<g>
				<path class="st0" d="M854.08,866.03c-3.33-0.15-5.87-1.29-7.61-3.44c-1.74-2.15-2.66-4.65-2.75-7.5
					c-0.15-8.89-0.15-17.34,0-25.36c11.78-0.24,21.44-0.26,28.98-0.07c3.33,0.15,5.89,1.28,7.68,3.4c1.79,2.13,2.73,4.69,2.82,7.68
					c0.19,5.46,0.19,10.17,0,14.13c-0.1,2.85-1.05,5.39-2.86,7.61c-1.81,2.22-4.36,3.4-7.64,3.55
					C866.47,866.22,860.27,866.22,854.08,866.03z M856.26,860.96h14.27c4.39,0,6.59-2.58,6.59-7.75v-10.65
					c0-5.17-2.2-7.75-6.59-7.75h-20.79v18.4C849.74,858.37,851.91,860.96,856.26,860.96z"/>
				<path class="st0" d="M863.37,868.21c-3.13,0-6.25-0.05-9.35-0.14l-0.03,0c-3.92-0.17-6.99-1.58-9.1-4.19
					c-2.01-2.49-3.09-5.42-3.2-8.71c-0.15-8.9-0.15-17.46,0-25.46l0.04-1.96l1.96-0.04c11.75-0.24,21.53-0.27,29.07-0.07
					c3.94,0.17,7.02,1.56,9.18,4.13c2.08,2.48,3.19,5.48,3.3,8.93c0.2,5.48,0.19,10.29,0,14.29c-0.11,3.26-1.23,6.23-3.32,8.79
					c-2.18,2.68-5.25,4.13-9.13,4.3C869.65,868.16,866.5,868.21,863.37,868.21z M854.16,864c6.11,0.19,12.32,0.19,18.48,0
					c2.68-0.12,4.69-1.03,6.13-2.8c1.54-1.89,2.32-3.98,2.41-6.39c0.19-3.92,0.19-8.61,0-13.99c-0.08-2.55-0.85-4.66-2.35-6.44
					c-1.42-1.68-3.45-2.56-6.21-2.68c-7.02-0.18-16.07-0.17-26.89,0.04c-0.11,7.39-0.1,15.23,0.03,23.33
					c0.08,2.38,0.83,4.44,2.3,6.25C849.42,862.99,851.42,863.87,854.16,864z M870.53,862.99h-14.27c-3.2,0-8.55-1.27-8.55-9.79
					v-20.44h22.83c3.22,0,8.63,1.27,8.63,9.79v10.65C879.16,861.72,873.75,862.99,870.53,862.99z M851.77,836.84v16.37
					c0,5.02,2.16,5.72,4.49,5.72h14.27c2.37,0,4.56-0.69,4.56-5.72v-10.65c0-5.02-2.19-5.72-4.56-5.72H851.77z"/>
			</g>
			<g>
				<path class="st0" d="M893.78,865.96c-0.1-4.01-0.15-10.04-0.15-18.11c0-8.06,0.05-14.1,0.15-18.11h5.36l0.65,4.49h0.15
					c1.21-2.85,3.5-4.35,6.88-4.49c4.35-0.24,12.53-0.24,24.56,0c0.24,10.67,0.22,22.75-0.07,36.22h-5.94v-31.22h-19.85
					c-3.82,0-5.72,2.44-5.72,7.32v23.91H893.78z"/>
				<path class="st0" d="M933.3,867.99h-9.97v-31.22h-17.81c-1.29,0-3.69,0-3.69,5.28v25.94H891.8l-0.05-1.98
					c-0.1-4.01-0.15-9.95-0.15-18.16c0-8.21,0.05-14.15,0.15-18.16l0.05-1.98h9.11l0.26,1.77c1.5-1.07,3.38-1.67,5.57-1.76
					c4.35-0.24,12.67-0.24,24.69,0l1.95,0.04l0.04,1.95c0.24,10.66,0.22,22.88-0.07,36.31L933.3,867.99z M927.4,863.92h1.91
					c0.23-11.79,0.26-22.6,0.07-32.19c-10.86-0.2-18.41-0.19-22.45,0.03c-1.54,0.07-2.74,0.45-3.64,1.19
					c0.79-0.2,1.56-0.26,2.22-0.26h21.88V863.92z M895.78,863.92h1.98v-21.87c0-2.55,0.48-4.42,1.22-5.79h-0.95l-0.65-4.49h-1.61
					c-0.07,3.87-0.1,9.16-0.1,16.08C895.67,854.76,895.71,860.05,895.78,863.92z"/>
			</g>
			<g>
				<path class="st0" d="M955,865.96c-4.3,0-7.49-1.03-9.56-3.08c-2.08-2.05-3.16-4.67-3.26-7.86c-0.19-4.44-0.19-9.18,0-14.2
					c0.1-2.9,1.09-5.48,2.97-7.75c1.88-2.27,4.59-3.4,8.11-3.4h27.24v11.74c0,5.99-2.87,8.98-8.62,8.98h-23.62v2.75
					c0,5.12,2.39,7.68,7.17,7.68h24.56v4.93c-2.13,0.15-5.26,0.22-9.42,0.22H955z M974.7,834.66h-19.05c-4.93,0-7.39,2.61-7.39,7.82
					v5.22h0.15c0.97-1.45,2.51-2.17,4.64-2.17h17.82c2.56,0,3.84-1.26,3.84-3.77V834.66z"/>
				<path class="st0" d="M970.57,867.99H955c-4.84,0-8.53-1.23-10.99-3.67c-2.45-2.42-3.75-5.53-3.86-9.24
					c-0.19-4.45-0.19-9.28,0-14.34c0.11-3.33,1.27-6.36,3.44-8.97c2.28-2.75,5.54-4.14,9.68-4.14h29.27v13.77
					c0,7.11-3.78,11.02-10.66,11.02h-21.58v0.72c0,4.01,1.49,5.64,5.14,5.64h26.59v8.86l-1.9,0.13
					C977.97,867.92,974.75,867.99,970.57,867.99z M953.26,831.7c-2.91,0-5.06,0.87-6.55,2.67c-1.6,1.93-2.42,4.06-2.5,6.52
					c-0.19,4.96-0.19,9.68,0,14.04c0.08,2.7,0.95,4.81,2.66,6.5c1.67,1.65,4.41,2.49,8.13,2.49h15.57c2.99,0,5.46-0.04,7.38-0.11
					v-0.96h-22.52c-5.94,0-9.21-3.45-9.21-9.71v-10.65c0-6.36,3.35-9.86,9.42-9.86h21.09v9.13c0,3.63-2.2,5.8-5.87,5.8h-17.82
					c-1.35,0-2.09,0.37-2.54,0.78h21.37c4.62,0,6.59-2.08,6.59-6.95v-9.7H953.26z M955.65,836.69c-3.8,0-5.35,1.68-5.35,5.79v1.41
					c0.78-0.25,1.69-0.4,2.75-0.4h17.82c1.53,0,1.8-0.45,1.8-1.73v-5.06H955.65z"/>
			</g>
		</g>
	</g>
</g>
</svg>
